<svg width="1121" height="161" viewBox="0 0 1121 161" fill="none" xmlns="http://www.w3.org/2000/svg">
<path d="M0 93.4224L49.2648 62.5962V61.8501L0 30.9677V6.23633L71.8562 52.7853V71.661L0 118.238V93.4224Z" fill="#FF3300"/>
<path d="M104.484 133.92H193.668V154.485H104.484V133.92Z" fill="#FF3300"/>
<path d="M213.246 62.513C213.246 22.8471 232.713 0.00195312 260.554 0.00195312C288.396 0.00195312 307.863 22.8471 307.863 62.513C307.863 102.84 288.396 126.136 260.554 126.136C232.713 126.136 213.246 102.84 213.246 62.513ZM288.607 62.513C288.607 33.2774 277.459 16.3159 260.554 16.3159C243.65 16.3159 232.502 33.2774 232.502 62.513C232.502 92.4102 243.65 109.822 260.554 109.822C277.459 109.822 288.551 92.4102 288.551 62.513H288.607Z" fill="#FF3300"/>
<path d="M341.855 33.1224H356.987L358.394 44.0875H358.986C367.178 36.4161 378.635 30.9688 389.304 30.9688C413.233 30.9688 426.549 49.0985 426.549 77.2503C426.549 108.217 407.223 126.206 385.729 126.206C377.439 126.206 367.656 122.11 359.9 114.946H359.45L360.337 131.428V160.988H341.855V33.1224ZM407.589 77.2503C407.589 58.2337 400.678 46.2833 384.322 46.2833C376.89 46.2833 368.599 49.9571 360.393 58.4167V101.348C367.924 108.175 376.468 110.652 382.253 110.652C396.666 110.709 407.589 98.716 407.589 77.2503Z" fill="#FF3300"/>
<path d="M454.645 78.3623C454.645 48.803 476.912 30.8984 501.207 30.8984C527.852 30.8984 543.012 48.3948 543.012 73.7454C542.979 77.1118 542.697 80.4711 542.167 83.7956H467.467V70.2405H530.653L526.642 74.7589C526.642 55.0527 517.126 45.1995 501.742 45.1995C485.85 45.1995 472.816 56.9247 472.816 78.3342C472.816 100.644 486.793 111.638 506.316 111.638C516.465 111.638 524.615 108.569 532.835 103.643L539.31 115.34C528.826 122.337 516.514 126.092 503.909 126.136C476.406 126.136 454.645 108.611 454.645 78.3623Z" fill="#FF3300"/>
<path d="M570.389 33.1224H585.548L586.956 47.5924H587.688C596.809 38.2741 607.168 30.9688 621.188 30.9688C642.414 30.9688 652.084 44.0171 652.084 67.6646V123.87H633.574V70.0153C633.574 54.1658 628.254 46.8464 614.797 46.8464C604.944 46.8464 598.258 51.7025 588.898 61.3023V123.87H570.389V33.1224Z" fill="#FF3300"/>
<path d="M688.385 108.259L699.35 95.3935C708.69 104.433 721.12 109.581 734.117 109.793C749.515 109.793 758.045 102.755 758.045 92.9021C758.045 81.008 749.163 77.7001 737.101 72.6047L719.971 65.1163C707.542 60.2179 693.931 51.2234 693.931 33.3048C693.931 14.3446 710.976 0.00122795 735.003 0.00122795C749.245 -0.0942507 762.959 5.38154 773.219 15.2595L763.591 27.1677C755.512 19.9758 745.015 16.0998 734.201 16.3152C721.392 16.3152 712.792 22.2411 712.792 32.2069C712.792 42.7638 723.292 46.6206 734.004 50.773L750.515 58.0502C765.773 63.9902 777.174 72.8862 777.174 90.664C777.174 110.201 760.691 126.135 733.103 126.135C716.438 126.224 700.396 119.811 688.385 108.259V108.259Z" fill="black"/>
<path d="M807.379 99.9399C807.379 79.5861 825.846 69.5641 871.691 66.1577C871.029 54.897 865.005 45.9166 848.86 45.9166C837.881 45.9166 827.057 50.9417 818.175 56.1357L811.137 43.7911C821.328 37.4992 836.473 30.9258 852.182 30.9258C877.208 30.9258 890.186 45.2832 890.186 69.2685V123.869H874.914L873.436 112.087H872.845C863.133 119.688 850.507 126.163 838.078 126.163C820.723 126.135 807.379 115.93 807.379 99.9399ZM871.691 99.2361V77.9815C836.093 80.5292 825.466 87.7079 825.466 98.5323C825.466 107.653 833.644 111.426 843.356 111.426C853.069 111.426 862.288 106.879 871.691 99.2361Z" fill="black"/>
<path d="M941.661 87.9905V47.8601H916.635V34.0939L942.379 33.1227L944.8 4.35156H960.157V33.1227H1002.99V47.8601H960.157V88.0468C960.157 103.657 965.674 111.216 982.101 111.216C989.177 111.195 996.19 109.879 1002.79 107.331L1006.55 120.858C997.356 124.284 987.633 126.07 977.822 126.136C950.684 126.136 941.661 110.779 941.661 87.9905Z" fill="black"/>
<path d="M1033.9 112.018L1042.13 100.039C1053.46 107.968 1067 112.133 1080.83 111.947C1094.75 111.947 1101.41 106.317 1101.41 99.5747C1101.41 93.1561 1097.63 89.0881 1074.77 84.3727C1050.85 79.4039 1039.58 71.0992 1039.58 57.3611C1039.58 42.1873 1053.24 30.8984 1078.36 30.8984C1092.81 30.8984 1106.6 36.5288 1115.69 42.694L1107.01 54.2362C1098.07 48.2303 1087.56 44.994 1076.79 44.9321C1063.27 44.9321 1058.05 50.2669 1058.05 56.4884C1058.05 63.5263 1065.3 66.3415 1083.12 70.1842C1112.68 76.6591 1120.07 84.2601 1120.07 98.4768C1120.07 113.665 1105.35 126.136 1078.55 126.136C1062.6 125.934 1047.06 121.022 1033.9 112.018V112.018Z" fill="black"/>
</svg>
