<svg width="5544" height="1046" viewBox="0 0 5544 1046" fill="none" xmlns="http://www.w3.org/2000/svg">
<rect width="5544" height="1046" fill="white"/>
<g clip-path="url(#clip0_1266_2292)">
<path d="M149 640.197L378.609 496.597V493.121L149 349.259V234.051L483.901 450.894V538.824L149 755.798V640.197Z" fill="#FF3300"/>
<path d="M635.969 828.844H1051.63V924.643H635.969V828.844Z" fill="#FF3300"/>
<path d="M1142.88 496.2C1142.88 311.422 1233.61 205 1363.37 205C1493.13 205 1583.86 311.422 1583.86 496.2C1583.86 684.061 1493.13 792.581 1363.37 792.581C1233.61 792.581 1142.88 684.061 1142.88 496.2ZM1494.12 496.2C1494.12 360.01 1442.16 280.997 1363.37 280.997C1284.58 280.997 1232.62 360.01 1232.62 496.2C1232.62 635.473 1284.58 716.584 1363.37 716.584C1442.16 716.584 1493.85 635.473 1493.85 496.2H1494.12Z" fill="#FF3300"/>
<path d="M1742.29 359.29H1812.81L1819.37 410.37H1822.13C1860.31 374.634 1913.71 349.258 1963.44 349.258C2074.96 349.258 2137.02 433.713 2137.02 564.855C2137.02 709.111 2046.95 792.911 1946.77 792.911C1908.13 792.911 1862.54 773.829 1826.39 740.454H1824.29L1828.43 817.237V954.936H1742.29V359.29ZM2048.65 564.855C2048.65 476.269 2016.44 420.599 1940.21 420.599C1905.57 420.599 1866.93 437.713 1828.69 477.121V677.112C1863.79 708.914 1903.61 720.455 1930.57 720.455C1997.75 720.717 2048.65 664.851 2048.65 564.855Z" fill="#FF3300"/>
<path d="M2267.96 570.035C2267.96 432.336 2371.75 348.93 2484.98 348.93C2609.16 348.93 2679.82 430.434 2679.82 548.527C2679.67 564.209 2678.35 579.858 2675.88 595.345H2327.73V532.2H2622.22L2603.52 553.249C2603.52 461.449 2559.17 415.55 2487.47 415.55C2413.41 415.55 2352.66 470.17 2352.66 569.904C2352.66 673.833 2417.8 725.044 2508.79 725.044C2556.09 725.044 2594.08 710.75 2632.39 687.8L2662.56 742.29C2613.7 774.886 2556.32 792.378 2497.57 792.582C2369.39 792.582 2267.96 710.947 2267.96 570.035Z" fill="#FF3300"/>
<path d="M2807.41 359.29H2878.07L2884.63 426.697H2888.04C2930.55 383.289 2978.83 349.258 3044.17 349.258C3143.1 349.258 3188.17 410.042 3188.17 520.201V782.026H3101.9V531.152C3101.9 457.319 3077.11 423.222 3014.39 423.222C2968.47 423.222 2937.31 445.844 2893.68 490.563V782.026H2807.41V359.29Z" fill="#FF3300"/>
<path d="M3357.36 709.308L3408.46 649.376C3452 691.486 3509.93 715.468 3570.5 716.455C3642.27 716.455 3682.03 683.669 3682.03 637.77C3682.03 582.362 3640.63 566.953 3584.41 543.217L3504.57 508.333C3446.64 485.514 3383.21 443.614 3383.21 360.143C3383.21 271.819 3462.65 205.002 3574.64 205.002C3641.01 204.557 3704.93 230.065 3752.75 276.081L3707.87 331.554C3670.22 298.051 3621.3 279.995 3570.9 280.999C3511.2 280.999 3471.11 308.604 3471.11 355.028C3471.11 404.206 3520.05 422.173 3569.98 441.516L3646.93 475.416C3718.04 503.087 3771.18 544.528 3771.18 627.344C3771.18 718.356 3694.36 792.583 3565.78 792.583C3488.11 792.998 3413.34 763.123 3357.36 709.308V709.308Z" fill="black"/>
<path d="M3911.96 670.557C3911.96 575.741 3998.04 529.055 4211.7 513.186C4208.62 460.73 4180.54 418.896 4105.3 418.896C4054.13 418.896 4003.68 442.304 3962.28 466.5L3929.48 408.994C3976.98 379.684 4047.57 349.062 4120.78 349.062C4237.42 349.062 4297.91 415.945 4297.91 527.678V782.027H4226.73L4219.84 727.144H4217.08C4171.82 762.553 4112.97 792.715 4055.04 792.715C3974.16 792.584 3911.96 745.045 3911.96 670.557ZM4211.7 667.278V568.266C4045.79 580.134 3996.26 613.576 3996.26 664C3996.26 706.489 4034.38 724.063 4079.65 724.063C4124.91 724.063 4167.88 702.883 4211.7 667.278Z" fill="black"/>
<path d="M4537.81 614.884V427.941H4421.17V363.813L4541.16 359.289L4552.44 225.262H4624.02V359.289H4823.64V427.941H4624.02V615.146C4624.02 687.864 4649.73 723.076 4726.29 723.076C4759.27 722.981 4791.96 716.847 4822.73 704.979L4840.24 767.992C4797.39 783.951 4752.07 792.274 4706.35 792.581C4579.86 792.581 4537.81 721.043 4537.81 614.884Z" fill="black"/>
<path d="M4967.71 726.815L5006.09 671.014C5058.9 707.948 5121.98 727.353 5186.43 726.487C5251.31 726.487 5282.34 700.259 5282.34 668.85C5282.34 638.95 5264.76 620 5158.22 598.034C5046.7 574.887 4994.21 536.2 4994.21 472.203C4994.21 401.518 5057.85 348.93 5174.95 348.93C5242.26 348.93 5306.55 375.158 5348.93 403.878L5308.45 457.646C5266.79 429.668 5217.79 414.592 5167.6 414.304C5104.62 414.304 5080.28 439.155 5080.28 468.138C5080.28 500.923 5114.07 514.037 5197.12 531.938C5334.89 562.101 5369.33 597.509 5369.33 663.736C5369.33 734.487 5300.71 792.582 5175.8 792.582C5101.47 791.641 5029.07 768.76 4967.71 726.815V726.815Z" fill="black"/>
</g>
<defs>
<clipPath id="clip0_1266_2292">
<rect width="5220" height="750" fill="white" transform="translate(149 205)"/>
</clipPath>
</defs>
</svg>
