<?xml version="1.0" encoding="UTF-8" standalone="no"?>
<svg
   viewBox="0 0 1111.2292 523.40936"
   version="1.1"
   id="svg82"
   sodipodi:docname="monthly-grant-payouts-v2.svg"
   width="1111.2292"
   height="523.40936"
   xml:space="preserve"
   inkscape:version="1.4.3 (0d15f75, 2025-12-25)"
   xmlns:inkscape="http://www.inkscape.org/namespaces/inkscape"
   xmlns:sodipodi="http://sodipodi.sourceforge.net/DTD/sodipodi-0.dtd"
   xmlns:xlink="http://www.w3.org/1999/xlink"
   xmlns="http://www.w3.org/2000/svg"
   xmlns:svg="http://www.w3.org/2000/svg"><sodipodi:namedview
     id="namedview82"
     pagecolor="#ffffff"
     bordercolor="#000000"
     borderopacity="0.25"
     inkscape:showpageshadow="2"
     inkscape:pageopacity="0.0"
     inkscape:pagecheckerboard="0"
     inkscape:deskcolor="#d1d1d1"
     inkscape:zoom="1.1044123"
     inkscape:cx="948.46825"
     inkscape:cy="256.69761"
     inkscape:window-width="1512"
     inkscape:window-height="916"
     inkscape:window-x="0"
     inkscape:window-y="38"
     inkscape:window-maximized="0"
     inkscape:current-layer="svg82" /><defs
     id="defs7"><!-- OpenSats orange gradient for main curves --><linearGradient
       id="mainGradient"
       x1="0"
       y1="0"
       x2="1"
       y2="0"><stop
         offset="0%"
         stop-color="#c2410c"
         id="stop1" /><stop
         offset="30%"
         stop-color="#ea580c"
         id="stop2" /><stop
         offset="50%"
         stop-color="#f97316"
         id="stop3" /><stop
         offset="70%"
         stop-color="#fb923c"
         id="stop4" /><stop
         offset="100%"
         stop-color="#ea580c"
         id="stop5" /></linearGradient><!-- Gradient for fan lines --><linearGradient
       id="fanGradient"
       x1="0"
       y1="0"
       x2="1"
       y2="0"><stop
         offset="0%"
         stop-color="#fb923c"
         id="stop6" /><stop
         offset="100%"
         stop-color="#c2410c"
         id="stop7" /></linearGradient><linearGradient
       inkscape:collect="always"
       xlink:href="#mainGradient"
       id="linearGradient82"
       x1="45.987026"
       y1="204.05754"
       x2="393.59485"
       y2="204.05754"
       gradientTransform="matrix(1.4786779,0,0,0.67627982,62.617017,3.33117)"
       gradientUnits="userSpaceOnUse" /><linearGradient
       inkscape:collect="always"
       xlink:href="#mainGradient"
       id="linearGradient83"
       x1="45.987026"
       y1="335.54135"
       x2="393.59485"
       y2="335.54135"
       gradientTransform="matrix(1.4786779,0,0,0.67627982,62.617017,3.33117)"
       gradientUnits="userSpaceOnUse" /><linearGradient
       inkscape:collect="always"
       xlink:href="#fanGradient"
       id="linearGradient84"
       x1="629.40802"
       y1="91.944031"
       x2="814.375"
       y2="91.944031"
       gradientTransform="scale(0.92150082,1.0851862)"
       gradientUnits="userSpaceOnUse" /><linearGradient
       inkscape:collect="always"
       xlink:href="#fanGradient"
       id="linearGradient85"
       x1="588.62732"
       y1="117.99"
       x2="766.7149"
       y2="117.99"
       gradientTransform="scale(0.98528687,1.0149328)"
       gradientUnits="userSpaceOnUse" /><linearGradient
       inkscape:collect="always"
       xlink:href="#fanGradient"
       id="linearGradient86"
       x1="547.36444"
       y1="148.03751"
       x2="717.70551"
       y2="148.03751"
       gradientTransform="scale(1.0595098,0.94383273)"
       gradientUnits="userSpaceOnUse" /><linearGradient
       inkscape:collect="always"
       xlink:href="#fanGradient"
       id="linearGradient87"
       x1="505.27307"
       y1="183.27705"
       x2="666.87781"
       y2="183.27705"
       gradientTransform="scale(1.1477222,0.87129099)"
       gradientUnits="userSpaceOnUse" /><linearGradient
       inkscape:collect="always"
       xlink:href="#fanGradient"
       id="linearGradient88"
       x1="461.90311"
       y1="225.53529"
       x2="613.61255"
       y2="225.53529"
       gradientTransform="scale(1.2554397,0.79653365)"
       gradientUnits="userSpaceOnUse" /><linearGradient
       inkscape:collect="always"
       xlink:href="#fanGradient"
       id="linearGradient89"
       x1="416.62976"
       y1="277.80685"
       x2="557.04126"
       y2="277.80685"
       gradientTransform="scale(1.3918179,0.71848482)"
       gradientUnits="userSpaceOnUse" /><linearGradient
       inkscape:collect="always"
       xlink:href="#fanGradient"
       id="linearGradient90"
       x1="368.51178"
       y1="345.46811"
       x2="495.8497"
       y2="345.46811"
       gradientTransform="scale(1.5735083,0.63552256)"
       gradientUnits="userSpaceOnUse" /><linearGradient
       inkscape:collect="always"
       xlink:href="#fanGradient"
       id="linearGradient91"
       x1="315.97833"
       y1="439.52631"
       x2="427.84302"
       y2="439.52631"
       gradientTransform="scale(1.8350685,0.54493879)"
       gradientUnits="userSpaceOnUse" /><linearGradient
       inkscape:collect="always"
       xlink:href="#fanGradient"
       id="linearGradient92"
       x1="256.00369"
       y1="587.74805"
       x2="348.79742"
       y2="587.74805"
       gradientTransform="scale(2.264925,0.44151572)"
       gradientUnits="userSpaceOnUse" /><linearGradient
       inkscape:collect="always"
       xlink:href="#fanGradient"
       id="linearGradient93"
       x1="216.04913"
       y1="726.14349"
       x2="296.27457"
       y2="726.14349"
       gradientTransform="scale(2.6837311,0.37261557)"
       gradientUnits="userSpaceOnUse" /><linearGradient
       inkscape:collect="always"
       xlink:href="#fanGradient"
       id="linearGradient94"
       x1="198.96776"
       y1="799.9303"
       x2="274.60605"
       y2="799.9303"
       gradientTransform="scale(2.9140787,0.34316163)"
       gradientUnits="userSpaceOnUse" /><linearGradient
       inkscape:collect="always"
       xlink:href="#fanGradient"
       id="linearGradient95"
       x1="262.43213"
       y1="610.30066"
       x2="359.98264"
       y2="610.30066"
       gradientTransform="scale(2.2092732,0.45263754)"
       gradientUnits="userSpaceOnUse" /><linearGradient
       inkscape:collect="always"
       xlink:href="#fanGradient"
       id="linearGradient96"
       x1="317.98627"
       y1="505.03543"
       x2="433.492"
       y2="505.03543"
       gradientTransform="scale(1.8232252,0.5484786)"
       gradientUnits="userSpaceOnUse" /><linearGradient
       inkscape:collect="always"
       xlink:href="#fanGradient"
       id="linearGradient97"
       x1="368.40109"
       y1="436.32275"
       x2="499.08627"
       y2="436.32275"
       gradientTransform="scale(1.5736567,0.63546262)"
       gradientUnits="userSpaceOnUse" /><linearGradient
       inkscape:collect="always"
       xlink:href="#fanGradient"
       id="linearGradient98"
       x1="415.3775"
       y1="386.91846"
       x2="559.18549"
       y2="386.91846"
       gradientTransform="scale(1.3956299,0.71652232)"
       gradientUnits="userSpaceOnUse" /><linearGradient
       inkscape:collect="always"
       xlink:href="#fanGradient"
       id="linearGradient99"
       x1="459.95309"
       y1="349.13013"
       x2="615.26544"
       y2="349.13013"
       gradientTransform="scale(1.2603246,0.79344641)"
       gradientUnits="userSpaceOnUse" /><linearGradient
       inkscape:collect="always"
       xlink:href="#fanGradient"
       id="linearGradient100"
       x1="502.8761"
       y1="318.88806"
       x2="668.3819"
       y2="318.88806"
       gradientTransform="scale(1.152705,0.86752462)"
       gradientUnits="userSpaceOnUse" /><linearGradient
       inkscape:collect="always"
       xlink:href="#fanGradient"
       id="linearGradient101"
       x1="544.58087"
       y1="293.97787"
       x2="719.15076"
       y2="293.97787"
       gradientTransform="scale(1.06439,0.93950523)"
       gradientUnits="userSpaceOnUse" /><linearGradient
       inkscape:collect="always"
       xlink:href="#fanGradient"
       id="linearGradient102"
       x1="585.48029"
       y1="272.9201"
       x2="768.14465"
       y2="272.9201"
       gradientTransform="scale(0.99000135,1.0100996)"
       gradientUnits="userSpaceOnUse" /><linearGradient
       inkscape:collect="always"
       xlink:href="#fanGradient"
       id="linearGradient103"
       x1="625.87994"
       y1="254.76889"
       x2="815.78204"
       y2="254.76889"
       gradientTransform="scale(0.92606828,1.079834)"
       gradientUnits="userSpaceOnUse" /><linearGradient
       inkscape:collect="always"
       xlink:href="#fanGradient"
       id="linearGradient104"
       x1="666.03339"
       y1="238.87325"
       x2="862.40381"
       y2="238.87325"
       gradientTransform="scale(0.8702122,1.149145)"
       gradientUnits="userSpaceOnUse" /><linearGradient
       inkscape:collect="always"
       xlink:href="#fanGradient"
       id="linearGradient105"
       x1="780.76947"
       y1="74.067238"
       x2="1077.9858"
       y2="74.067238"
       gradientTransform="scale(0.74233226,1.3471057)"
       gradientUnits="userSpaceOnUse" /><linearGradient
       inkscape:collect="always"
       id="linearGradient7054"><stop
         style="stop-color:#ffb200;stop-opacity:1;"
         offset="0"
         id="stop7050" /><stop
         style="stop-color:#ff6b01;stop-opacity:1;"
         offset="0.49295774"
         id="stop7052" /></linearGradient><radialGradient
       inkscape:collect="always"
       xlink:href="#linearGradient7054"
       id="radialGradient7056"
       cx="31.832577"
       cy="29.662136"
       fx="31.832577"
       fy="29.662136"
       r="42.553486"
       gradientTransform="matrix(2,0,0,1.9969558,-74.450708,12.981889)"
       gradientUnits="userSpaceOnUse" /><radialGradient
       inkscape:collect="always"
       xlink:href="#linearGradient7054"
       id="radialGradient7056-7"
       cx="31.832577"
       cy="29.662136"
       fx="31.832577"
       fy="29.662136"
       r="42.553486"
       gradientTransform="matrix(2,0,0,1.9969558,-74.450708,12.981889)"
       gradientUnits="userSpaceOnUse" /></defs><!-- Left chevron markers --><polyline
     points="30,120 50,140 30,160"
     fill="none"
     stroke="#ea580c"
     stroke-width="3"
     stroke-linecap="round"
     id="polyline7"
     transform="translate(62.617017,3.33117)" /><polyline
     points="50,120 70,140 50,160"
     fill="none"
     stroke="#ea580c"
     stroke-width="3"
     stroke-linecap="round"
     id="polyline8"
     transform="translate(62.617017,3.33117)" /><polyline
     points="30,440 50,460 30,480"
     fill="none"
     stroke="#ea580c"
     stroke-width="3"
     stroke-linecap="round"
     id="polyline9"
     transform="translate(62.617017,3.33117)" /><polyline
     points="50,440 70,460 50,480"
     fill="none"
     stroke="#ea580c"
     stroke-width="3"
     stroke-linecap="round"
     id="polyline10"
     transform="translate(62.617017,3.33117)" /><!-- Top input line curving down --><path
     d="m 132.61702,143.33117 c 130,0 230,0 330,160 100,160 150,0 180,0"
     fill="none"
     stroke="url(#mainGradient)"
     stroke-width="4"
     stroke-linecap="round"
     id="path10"
     style="stroke:url(#linearGradient82)" /><!-- Bottom input line curving up --><path
     d="m 132.61702,463.33117 c 130,0 230,0 330,-160 100,-160 150,0 180,0"
     fill="none"
     stroke="url(#mainGradient)"
     stroke-width="4"
     stroke-linecap="round"
     id="path11"
     style="stroke:url(#linearGradient83)" /><!-- Fan-out lines on the right --><g
     stroke="url(#fanGradient)"
     stroke-width="1"
     fill="none"
     opacity="0.8"
     id="g32"
     style="stroke:url(#linearGradient105)"
     transform="translate(62.617017,3.33117)"><!-- Radial fan lines --><path
       d="m 580,300 q 70,0 170,-200"
       id="path12"
       style="stroke:url(#linearGradient84)" /><path
       d="m 580,300 q 75,-5 175,-180"
       id="path13"
       style="stroke:url(#linearGradient85)" /><path
       d="M 580,300 Q 660,290 760,140"
       id="path14"
       style="stroke:url(#linearGradient86)" /><path
       d="M 580,300 Q 665,285 765,160"
       id="path15"
       style="stroke:url(#linearGradient87)" /><path
       d="M 580,300 Q 670,280 770,180"
       id="path16"
       style="stroke:url(#linearGradient88)" /><path
       d="M 580,300 Q 675,275 775,200"
       id="path17"
       style="stroke:url(#linearGradient89)" /><path
       d="M 580,300 Q 680,270 780,220"
       id="path18"
       style="stroke:url(#linearGradient90)" /><path
       d="M 580,300 Q 685,265 785,240"
       id="path19"
       style="stroke:url(#linearGradient91)" /><path
       d="M 580,300 Q 690,260 790,260"
       id="path20"
       style="stroke:url(#linearGradient92)" /><path
       d="M 580,300 Q 695,255 795,280"
       id="path21"
       style="stroke:url(#linearGradient93)" /><path
       d="m 580,300 q 120,-50 220,0"
       id="path22"
       style="stroke:url(#linearGradient94)" /><path
       d="m 580,300 q 115,-55 215,20"
       id="path23"
       style="stroke:url(#linearGradient95)" /><path
       d="m 580,300 q 110,-60 210,40"
       id="path24"
       style="stroke:url(#linearGradient96)" /><path
       d="m 580,300 q 105,-65 205,60"
       id="path25"
       style="stroke:url(#linearGradient97)" /><path
       d="m 580,300 q 100,-70 200,80"
       id="path26"
       style="stroke:url(#linearGradient98)" /><path
       d="m 580,300 q 95,-75 195,100"
       id="path27"
       style="stroke:url(#linearGradient99)" /><path
       d="m 580,300 q 90,-80 190,120"
       id="path28"
       style="stroke:url(#linearGradient100)" /><path
       d="m 580,300 q 85,-85 185,140"
       id="path29"
       style="stroke:url(#linearGradient101)" /><path
       d="m 580,300 q 80,-90 180,160"
       id="path30"
       style="stroke:url(#linearGradient102)" /><path
       d="m 580,300 q 75,-95 175,180"
       id="path31"
       style="stroke:url(#linearGradient103)" /><path
       d="M 580,300 Q 650,200 750,500"
       id="path32"
       style="stroke:url(#linearGradient104)" /></g><!-- More dense fan lines for the spiral effect --><g
     stroke="#ea580c"
     stroke-width="0.5"
     fill="none"
     opacity="0.6"
     id="g53"
     transform="translate(62.617017,3.33117)"><path
       d="M 580,300 Q 640,310 720,90"
       id="path33" /><path
       d="m 580,300 q 65,15 145,-190"
       id="path34" /><path
       d="m 580,300 q 70,20 150,-170"
       id="path35" /><path
       d="m 580,300 q 75,25 155,-150"
       id="path36" /><path
       d="m 580,300 q 80,30 160,-130"
       id="path37" /><path
       d="m 580,300 q 85,35 165,-110"
       id="path38" /><path
       d="m 580,300 q 90,40 170,-90"
       id="path39" /><path
       d="m 580,300 q 95,45 175,-70"
       id="path40" /><path
       d="m 580,300 q 100,50 180,-50"
       id="path41" /><path
       d="m 580,300 q 105,55 185,-30"
       id="path42" /><path
       d="m 580,300 q 110,60 190,-10"
       id="path43" /><path
       d="m 580,300 q 105,65 185,30"
       id="path44" /><path
       d="m 580,300 q 100,70 180,50"
       id="path45" /><path
       d="m 580,300 q 95,75 175,70"
       id="path46" /><path
       d="m 580,300 q 90,80 170,90"
       id="path47" /><path
       d="m 580,300 q 85,85 165,110"
       id="path48" /><path
       d="m 580,300 q 80,90 160,130"
       id="path49" /><path
       d="m 580,300 q 75,95 155,150"
       id="path50" /><path
       d="m 580,300 q 70,100 150,170"
       id="path51" /><path
       d="m 580,300 q 65,105 145,190"
       id="path52" /><path
       d="m 580,300 q 60,110 140,210"
       id="path53" /></g><!-- Extra fine detail lines --><g
     stroke="#c2410c"
     stroke-width="0.3"
     fill="none"
     opacity="0.4"
     id="g82"
     transform="translate(62.617017,3.33117)"><path
       d="m 580,300 q 40,5 120,-220"
       id="path54" /><path
       d="m 580,300 q 45,8 125,-205"
       id="path55" /><path
       d="m 580,300 q 50,11 130,-190"
       id="path56" /><path
       d="m 580,300 q 55,14 135,-175"
       id="path57" /><path
       d="m 580,300 q 60,17 140,-160"
       id="path58" /><path
       d="m 580,300 q 65,20 145,-145"
       id="path59" /><path
       d="m 580,300 q 70,23 150,-130"
       id="path60" /><path
       d="m 580,300 q 75,26 155,-115"
       id="path61" /><path
       d="m 580,300 q 80,29 160,-100"
       id="path62" /><path
       d="m 580,300 q 85,32 165,-85"
       id="path63" /><path
       d="m 580,300 q 90,35 170,-70"
       id="path64" /><path
       d="m 580,300 q 95,38 175,-55"
       id="path65" /><path
       d="m 580,300 q 100,41 180,-40"
       id="path66" /><path
       d="m 580,300 q 105,44 185,-25"
       id="path67" /><path
       d="m 580,300 q 110,47 190,-10"
       id="path68" /><path
       d="m 580,300 q 105,50 185,25"
       id="path69" /><path
       d="m 580,300 q 100,53 180,40"
       id="path70" /><path
       d="m 580,300 q 95,56 175,55"
       id="path71" /><path
       d="m 580,300 q 90,59 170,70"
       id="path72" /><path
       d="m 580,300 q 85,62 165,85"
       id="path73" /><path
       d="m 580,300 q 80,65 160,100"
       id="path74" /><path
       d="m 580,300 q 75,68 155,115"
       id="path75" /><path
       d="m 580,300 q 70,71 150,130"
       id="path76" /><path
       d="m 580,300 q 65,74 145,145"
       id="path77" /><path
       d="m 580,300 q 60,77 140,160"
       id="path78" /><path
       d="m 580,300 q 55,80 135,175"
       id="path79" /><path
       d="m 580,300 q 50,83 130,190"
       id="path80" /><path
       d="m 580,300 q 45,86 125,205"
       id="path81" /><path
       d="m 580,300 q 40,89 120,220"
       id="path82" /></g><g
     id="g2367"
     transform="matrix(1.2370965,0,0,1.2370965,507.19388,263.92651)"><path
       id="rect7048"
       style="font-variation-settings:'wght' 700;opacity:1;fill:url(#radialGradient7056);fill-opacity:1;stroke-width:10.5833;stroke-linecap:round;stroke-linejoin:round"
       d="m 32.574123,39.318559 v 3.810103 h 16.109611 v -3.810103 z" /><path
       id="rect7048-9"
       style="font-variation-settings:'wght' 700;fill:url(#radialGradient7056-7);fill-opacity:1;stroke-width:10.5833;stroke-linecap:round;stroke-linejoin:round"
       d="m 14.849106,16.062097 v 4.551143 l 8.944674,5.680791 v 0.136942 l -8.944674,5.680274 V 36.66239 L 27.877769,28.107357 V 24.61713 Z" /></g><g
     id="g1"
     transform="translate(-121.50799,64.907567)"><path
       d="m 1034.7663,205.93529 v 53.20006 h -10.5686 v -43.09562 h -0.071 l -12.4967,7.92645 v -9.64028 l 13.1751,-8.39061 z m 25.8859,53.98556 q -5.677,0 -10.033,-2.14228 -4.356,-2.14229 -6.9267,-5.9984 -2.5708,-3.85611 -2.8921,-8.99759 h 10.3901 q 0.1428,2.46362 1.3924,4.42738 1.2497,1.92806 3.3563,3.07061 2.1066,1.10685 4.7844,1.10685 2.7493,0 4.8202,-1.24967 2.1065,-1.28537 3.2491,-3.49906 1.1782,-2.2494 1.1782,-5.14148 0,-2.9635 -1.1425,-5.2129 -1.1426,-2.24939 -3.1777,-3.53476 -2.0352,-1.28537 -4.7131,-1.28537 -3.499,0 -5.9984,1.49959 -2.4636,1.4639 -3.3919,4.10605 h -9.9973 l 1.6424,-31.13453 h 34.0623 v 8.89048 h -24.3863 l -0.9641,12.56807 h 0.072 q 2.0708,-2.10658 4.7844,-3.14202 2.7493,-1.07114 6.0698,-1.07114 3.6062,0 6.7839,1.35678 3.1777,1.32107 5.5699,3.7847 2.428,2.42792 3.7847,5.74846 1.3925,3.28484 1.3925,7.14095 0,5.46282 -2.4636,9.71169 -2.4279,4.21316 -6.891,6.60537 -4.4274,2.39222 -10.3544,2.39222 z m 45.7378,0.0714 q -6.6768,0 -11.5327,-3.32054 -4.8201,-3.35625 -7.4265,-9.49746 -2.5708,-6.14122 -2.5708,-14.60324 0,-8.49772 2.5708,-14.63894 2.6064,-6.14121 7.4265,-9.49746 4.8202,-3.35624 11.5327,-3.35624 6.6768,0 11.4969,3.35624 4.8558,3.32054 7.4266,9.49746 2.6064,6.14122 2.6064,14.63894 0,8.46202 -2.6064,14.60324 -2.5708,6.14121 -7.4266,9.49746 -4.8201,3.32054 -11.4969,3.32054 z m 0,-8.78337 q 3.4633,0 5.9627,-2.24939 2.4993,-2.2494 3.8561,-6.42686 1.3568,-4.17745 1.3568,-9.96162 0,-5.81987 -1.3568,-9.99732 -1.3568,-4.17746 -3.8561,-6.42686 -2.4994,-2.2851 -5.9627,-2.2851 -3.4634,0 -5.9984,2.2851 -2.4994,2.2494 -3.8561,6.42686 -1.3211,4.17745 -1.3211,9.99732 0,5.78417 1.3211,9.96162 1.3567,4.17746 3.8561,6.42686 2.535,2.24939 5.9984,2.24939 z m 43.2384,-0.10711 v -36.52594 h 8.9619 v 36.52594 z m -13.782,-13.99626 v -8.53343 h 36.5259 v 8.53343 z"
       id="text110"
       style="font-size:73.1233px;font-family:Inter;-inkscape-font-specification:'Inter, @opsz=32,wght=700';font-variation-settings:'opsz' 32, 'wght' 700;fill:#ff6b01;stroke-width:0.166635"
       aria-label="150+" /></g><path
     d="m 24.106747,175.24835 v -68.91014 h 6.7482 v 68.91014 z m 3.39195,-6.99813 q -6.8196,0 -11.63974,-2.14229 -4.82014,-2.17798 -7.39088,-6.28403 -2.57074,-4.10604 -2.57074,-9.89021 h 10.60431 q 0.0714,2.92779 1.39248,4.99866 1.35678,2.07088 3.82041,3.17772 2.46362,1.10685 5.85557,1.10685 3.07061,0 5.32001,-0.82121 2.2851,-0.85691 3.53477,-2.39222 1.28537,-1.5353 1.28537,-3.60617 0,-1.71383 -0.99973,-2.9635 -0.96403,-1.28537 -3.07061,-2.2494 -2.07088,-0.96402 -5.46283,-1.67812 l -5.60564,-1.21396 q -7.92645,-1.71383 -11.78256,-5.39141 -3.85611,-3.67759 -3.85611,-9.39035 0,-4.85584 2.53503,-8.46202 2.53504,-3.64189 7.06954,-5.67706 4.57021,-2.03517 10.60431,-2.03517 6.10551,0 10.5686,2.07088 4.46309,2.07087 6.92672,5.92699 2.49933,3.8204 2.67785,9.17611 h -10.28296 q -0.28564,-3.7847 -2.92779,-5.96269 -2.64215,-2.17799 -6.92672,-2.17799 -2.67785,0 -4.78443,0.85692 -2.07088,0.82121 -3.28484,2.3208 -1.17825,1.4996 -1.17825,3.42766 0,1.64242 0.92832,2.85638 0.92832,1.17825 2.96349,2.07087 2.03517,0.89262 5.2843,1.60672 l 5.10578,1.10684 q 4.24886,0.92833 7.35518,2.28511 3.10631,1.32107 5.10577,3.17772 1.99947,1.82094 2.9635,4.21316 0.96402,2.39221 0.96402,5.39141 0,5.10578 -2.57074,8.85478 -2.53503,3.71329 -7.28376,5.71275 -4.71303,1.99947 -11.247,1.99947 z"
     id="text10"
     style="font-size:73.1233px;font-family:Inter;-inkscape-font-specification:'Inter, @opsz=32,wght=700';font-variation-settings:'opsz' 32, 'wght' 700;fill:#ff6b01;stroke-width:0.166635"
     aria-label="$" /><path
     d="m 20.402501,435.43555 2.144748,-9.10547 6.186148,1.45712 -2.144748,9.10547 z m 10.460856,2.464 2.144747,-9.10546 6.186148,1.45711 -2.144747,9.10547 z m -23.5585361,53.14185 2.1447453,-9.10546 6.1861478,1.45711 -2.144745,9.10546 z m 10.4608551,2.464 2.144746,-9.10546 6.186148,1.45712 -2.144746,9.10545 z M 0,482.49796 l 12.197215,-51.78294 20.747936,4.88707 q 5.560578,1.30977 9.060058,3.89477 3.534237,2.5932 4.845944,6.05681 1.311718,3.4636 0.370321,7.46028 -0.704001,2.98881 -2.399339,5.04716 -1.652396,2.0318 -4.097796,3.06979 -2.445412,1.038 -5.467121,1.09657 l -0.01637,0.0695 q 3.097093,1.02297 5.265743,3.18446 2.176835,2.12675 3.006152,5.1466 0.864089,3.02802 -0.0036,6.71191 -1.015071,4.30946 -3.877971,7.11989 -2.828141,2.81862 -7.328176,3.7028 -4.500034,0.88417 -10.373402,-0.49927 z m 12.441869,-5.94638 9.9743,2.3494 q 4.135692,0.97414 6.846921,-0.25803 2.711227,-1.23215 3.47253,-4.46424 0.507534,-2.15473 -0.131953,-3.95603 -0.63129,-1.83607 -2.346274,-3.12039 -1.706801,-1.31907 -4.417587,-1.95758 l -10.148075,-2.39033 z m 5.149026,-21.86005 9.487756,2.23479 q 2.363246,0.55665 4.219704,0.15025 1.891207,-0.39822 3.138613,-1.64504 1.29035,-1.27338 1.756955,-3.25434 0.712188,-3.02357 -0.886041,-5.2708 -1.598219,-2.24722 -5.143089,-3.0822 l -9.487756,-2.23479 z"
     id="text11"
     style="font-size:73.1233px;font-family:Inter;-inkscape-font-specification:'Inter, @opsz=32,wght=700';font-variation-settings:'opsz' 32, 'wght' 700;fill:#ff6b01;stroke-width:0.166635"
     aria-label="₿" /><path
     d="m 330.66893,41.31038 q -0.14282,-4.855845 1.21396,-8.176385 1.35678,-3.32054 3.89182,-5.034368 2.57074,-1.713827 6.0341,-1.713827 2.46363,0 4.67732,1.035437 2.2494,0.999733 5.07007,3.534769 1.57101,1.321075 2.60645,2.03517 1.03543,0.67839 2.39221,0.67839 1.85665,0 3.07061,-1.463894 1.21396,-1.463894 1.14255,-4.570206 h 8.21209 q 0.14282,4.820139 -1.24966,8.176384 -1.39249,3.320541 -3.96323,5.034368 -2.57074,1.678123 -5.89128,1.678123 -2.60645,0 -4.89155,-1.071143 -2.2494,-1.071142 -4.96296,-3.463359 -1.64242,-1.463894 -2.64215,-2.106579 -0.96403,-0.642686 -2.2851,-0.642686 -1.85665,0 -3.07061,1.42819 -1.21396,1.392485 -1.14255,4.641616 z m 63.80436,27.59976 V 0 h 6.7482 v 68.91014 z m 3.39195,-6.998128 q -6.8196,0 -11.63974,-2.142284 -4.82014,-2.177989 -7.39088,-6.284034 -2.57074,-4.106044 -2.57074,-9.890211 h 10.60431 q 0.0714,2.927788 1.39248,4.998663 1.35678,2.070874 3.82041,3.177721 2.46362,1.106847 5.85557,1.106847 3.07061,0 5.32001,-0.821209 2.2851,-0.856914 3.53477,-2.392217 1.28537,-1.535304 1.28537,-3.606179 0,-1.713827 -0.99973,-2.963493 -0.96403,-1.28537 -3.07061,-2.249398 -2.07088,-0.964028 -5.46283,-1.678123 l -5.60564,-1.213961 q -7.92645,-1.713827 -11.78256,-5.391415 -3.85611,-3.677588 -3.85611,-9.390345 0,-4.855844 2.53503,-8.462023 2.53504,-3.641883 7.06954,-5.677053 4.57021,-2.035169 10.60431,-2.035169 6.10551,0 10.5686,2.070874 4.46309,2.070875 6.92672,5.926986 2.49933,3.820407 2.67785,9.176117 h -10.28296 q -0.28564,-3.784702 -2.92779,-5.96269 -2.64215,-2.177989 -6.92672,-2.177989 -2.67785,0 -4.78443,0.856913 -2.07088,0.821209 -3.28484,2.320808 -1.17826,1.499599 -1.17826,3.427655 0,1.642418 0.92833,2.856379 0.92832,1.178256 2.96349,2.070874 2.03517,0.892619 5.2843,1.606713 l 5.10578,1.106847 q 4.24886,0.928323 7.35517,2.285103 3.10632,1.321075 5.10578,3.177722 1.99947,1.820941 2.96349,4.213159 0.96403,2.392217 0.96403,5.391415 0,5.105777 -2.57074,8.854774 -2.53503,3.713293 -7.28376,5.712758 -4.71303,1.999465 -11.247,1.999465 z m 48.12998,-54.05697 v 53.200056 h -10.5686 V 17.959482 h -0.0714 l -12.49666,7.926452 v -9.640279 l 13.17505,-8.390613 z m 5.64136,64.304229 2.64215,-19.780423 h 10.10444 l -5.39142,19.780423 z m 37.86278,-10.247259 q -6.67678,0 -11.53263,-3.32054 -4.82014,-3.356246 -7.42658,-9.49746 -2.57074,-6.141215 -2.57074,-14.603237 0,-8.497727 2.57074,-14.638942 2.60644,-6.141214 7.42658,-9.497459 4.82014,-3.356245 11.53263,-3.356245 6.67679,0 11.49693,3.356245 4.85584,3.32054 7.42658,9.497459 2.60645,6.141215 2.60645,14.638942 0,8.462022 -2.60645,14.603237 -2.57074,6.141214 -7.42658,9.49746 -4.82014,3.32054 -11.49693,3.32054 z m 0,-8.783365 q 3.46336,0 5.96269,-2.249398 2.49933,-2.249399 3.85611,-6.426853 1.35678,-4.177454 1.35678,-9.961621 0,-5.819872 -1.35678,-9.997326 -1.35678,-4.177454 -3.85611,-6.426852 -2.49933,-2.285103 -5.96269,-2.285103 -3.46336,0 -5.99839,2.285103 -2.49934,2.249398 -3.85612,6.426852 -1.32107,4.177454 -1.32107,9.997326 0,5.784167 1.32107,9.961621 1.35678,4.177454 3.85612,6.426853 2.53503,2.249398 5.99839,2.249398 z m 47.5587,8.783365 q -6.67678,0 -11.53263,-3.32054 -4.82014,-3.356246 -7.42658,-9.49746 -2.57074,-6.141215 -2.57074,-14.603237 0,-8.497727 2.57074,-14.638942 2.60644,-6.141214 7.42658,-9.497459 4.82014,-3.356245 11.53263,-3.356245 6.67679,0 11.49693,3.356245 4.85584,3.32054 7.42658,9.497459 2.60645,6.141215 2.60645,14.638942 0,8.462022 -2.60645,14.603237 -2.57074,6.141214 -7.42658,9.49746 -4.82014,3.32054 -11.49693,3.32054 z m 0,-8.783365 q 3.46336,0 5.96269,-2.249398 2.49933,-2.249399 3.85611,-6.426853 1.35678,-4.177454 1.35678,-9.961621 0,-5.819872 -1.35678,-9.997326 -1.35678,-4.177454 -3.85611,-6.426852 -2.49933,-2.285103 -5.96269,-2.285103 -3.46336,0 -5.99839,2.285103 -2.49934,2.249398 -3.85612,6.426852 -1.32107,4.177454 -1.32107,9.997326 0,5.784167 1.32107,9.961621 1.35678,4.177454 3.85612,6.426853 2.53503,2.249398 5.99839,2.249398 z m 47.55872,8.783365 q -6.67679,0 -11.53263,-3.32054 -4.82014,-3.356246 -7.42659,-9.49746 -2.57074,-6.141215 -2.57074,-14.603237 0,-8.497727 2.57074,-14.638942 2.60645,-6.141214 7.42659,-9.497459 4.82014,-3.356245 11.53263,-3.356245 6.67678,0 11.49692,3.356245 4.85585,3.32054 7.42659,9.497459 2.60644,6.141215 2.60644,14.638942 0,8.462022 -2.60644,14.603237 -2.57074,6.141214 -7.42659,9.49746 -4.82014,3.32054 -11.49692,3.32054 z m 0,-8.783365 q 3.46336,0 5.96269,-2.249398 2.49933,-2.249399 3.85611,-6.426853 1.35678,-4.177454 1.35678,-9.961621 0,-5.819872 -1.35678,-9.997326 -1.35678,-4.177454 -3.85611,-6.426852 -2.49933,-2.285103 -5.96269,-2.285103 -3.46336,0 -5.9984,2.285103 -2.49933,2.249398 -3.85611,6.426852 -1.32108,4.177454 -1.32108,9.997326 0,5.784167 1.32108,9.961621 1.35678,4.177454 3.85611,6.426853 2.53504,2.249398 5.9984,2.249398 z m 23.33094,19.030624 2.64215,-19.780423 h 10.10444 l -5.39141,19.780423 z m 37.8628,-10.247259 q -6.67679,0 -11.53263,-3.32054 -4.82014,-3.356246 -7.42659,-9.49746 -2.57074,-6.141215 -2.57074,-14.603237 0,-8.497727 2.57074,-14.638942 2.60645,-6.141214 7.42659,-9.497459 4.82014,-3.356245 11.53263,-3.356245 6.67678,0 11.49692,3.356245 4.85585,3.32054 7.42659,9.497459 2.60644,6.141215 2.60644,14.638942 0,8.462022 -2.60644,14.603237 -2.57074,6.141214 -7.42659,9.49746 -4.82014,3.32054 -11.49692,3.32054 z m 0,-8.783365 q 3.46336,0 5.96269,-2.249398 2.49933,-2.249399 3.85611,-6.426853 1.35678,-4.177454 1.35678,-9.961621 0,-5.819872 -1.35678,-9.997326 -1.35678,-4.177454 -3.85611,-6.426852 -2.49933,-2.285103 -5.96269,-2.285103 -3.46336,0 -5.9984,2.285103 -2.49933,2.249398 -3.85611,6.426852 -1.32107,4.177454 -1.32107,9.997326 0,5.784167 1.32107,9.961621 1.35678,4.177454 3.85611,6.426853 2.53504,2.249398 5.9984,2.249398 z m 47.55868,8.783365 q -6.67678,0 -11.53263,-3.32054 -4.82014,-3.356246 -7.42658,-9.49746 -2.57074,-6.141215 -2.57074,-14.603237 0,-8.497727 2.57074,-14.638942 2.60644,-6.141214 7.42658,-9.497459 4.82014,-3.356245 11.53263,-3.356245 6.67679,0 11.49693,3.356245 4.85584,3.32054 7.42658,9.497459 2.60645,6.141215 2.60645,14.638942 0,8.462022 -2.60645,14.603237 -2.57074,6.141214 -7.42658,9.49746 -4.82014,3.32054 -11.49693,3.32054 z m 0,-8.783365 q 3.46336,0 5.96269,-2.249398 2.49934,-2.249399 3.85612,-6.426853 1.35678,-4.177454 1.35678,-9.961621 0,-5.819872 -1.35678,-9.997326 -1.35678,-4.177454 -3.85612,-6.426852 -2.49933,-2.285103 -5.96269,-2.285103 -3.46336,0 -5.99839,2.285103 -2.49933,2.249398 -3.85611,6.426852 -1.32108,4.177454 -1.32108,9.997326 0,5.784167 1.32108,9.961621 1.35678,4.177454 3.85611,6.426853 2.53503,2.249398 5.99839,2.249398 z m 47.55872,8.783365 q -6.67679,0 -11.53263,-3.32054 -4.82014,-3.356246 -7.42659,-9.49746 -2.57074,-6.141215 -2.57074,-14.603237 0,-8.497727 2.57074,-14.638942 2.60645,-6.141214 7.42659,-9.497459 4.82014,-3.356245 11.53263,-3.356245 6.67678,0 11.49692,3.356245 4.85585,3.32054 7.42659,9.497459 2.60644,6.141215 2.60644,14.638942 0,8.462022 -2.60644,14.603237 -2.57074,6.141214 -7.42659,9.49746 -4.82014,3.32054 -11.49692,3.32054 z m 0,-8.783365 q 3.46336,0 5.96269,-2.249398 2.49933,-2.249399 3.85611,-6.426853 1.35678,-4.177454 1.35678,-9.961621 0,-5.819872 -1.35678,-9.997326 -1.35678,-4.177454 -3.85611,-6.426852 -2.49933,-2.285103 -5.96269,-2.285103 -3.46336,0 -5.9984,2.285103 -2.49933,2.249398 -3.85611,6.426852 -1.32107,4.177454 -1.32107,9.997326 0,5.784167 1.32107,9.961621 1.35678,4.177454 3.85611,6.426853 2.53504,2.249398 5.9984,2.249398 z"
     id="text13"
     style="font-size:73.1233px;font-family:Inter;-inkscape-font-specification:'Inter, @opsz=32,wght=700';font-variation-settings:'opsz' 32, 'wght' 700;fill:#ff6b01;stroke-width:0.166635"
     aria-label="~$1,000,000" /><path
     d="M 380.93076,104.04568 V 82.492332 h 6.49493 l 3.55847,10.038941 q 0.21698,0.67987 0.52075,1.677978 0.30378,0.983643 0.62201,2.068543 0.31824,1.070434 0.57862,2.054077 0.27484,0.983643 0.44842,1.634583 h -1.11383 q 0.17358,-0.65094 0.43396,-1.634583 0.27484,-0.983643 0.59308,-2.054077 0.31824,-1.0849 0.60754,-2.068543 0.30378,-0.998108 0.50629,-1.677978 l 3.51508,-10.038941 h 6.49493 v 21.553348 h -4.36853 V 93.804222 q 0,-0.723266 0.0289,-1.721374 0.0289,-0.998108 0.0579,-2.126404 0.0289,-1.142761 0.0579,-2.299988 0.0289,-1.171692 0.0434,-2.213196 h 0.53522 q -0.33271,1.142761 -0.69434,2.343384 -0.34717,1.200623 -0.67987,2.328918 -0.3327,1.128296 -0.63648,2.083008 -0.2893,0.940247 -0.50628,1.605652 l -3.64527,10.241458 h -3.61633 l -3.68866,-10.241458 q -0.21698,-0.665405 -0.52075,-1.605652 -0.30377,-0.954712 -0.65094,-2.083008 -0.3327,-1.128295 -0.7088,-2.328918 -0.36163,-1.200623 -0.7088,-2.343384 h 0.63647 q 0.0145,1.041504 0.0434,2.213196 0.0289,1.157227 0.0579,2.299988 0.0289,1.128296 0.0434,2.126404 0.0289,0.998108 0.0289,1.721374 v 10.241458 z m 33.47277,0.34717 q -2.29998,0 -4.05029,-0.99811 -1.7503,-0.99811 -2.73395,-2.79181 -0.96917,-1.793703 -0.96917,-4.180483 0,-2.401245 0.96917,-4.194946 0.98365,-1.793701 2.73395,-2.791809 1.75031,-1.012573 4.05029,-1.012573 2.32892,0 4.06476,1.012573 1.75031,0.998108 2.71948,2.791809 0.98365,1.793701 0.98365,4.194946 0,2.38678 -0.98365,4.180483 -0.96917,1.7937 -2.71948,2.79181 -1.73584,0.99811 -4.06476,0.99811 z m 0,-3.45722 q 1.04151,0 1.82264,-0.53522 0.78112,-0.549679 1.21508,-1.562252 0.43396,-1.012574 0.43396,-2.415711 0,-1.432068 -0.43396,-2.444641 -0.43396,-1.012573 -1.21508,-1.54779 -0.78113,-0.549683 -1.82264,-0.549683 -1.02703,0 -1.80816,0.549683 -0.78113,0.535217 -1.21509,1.54779 -0.43396,1.012573 -0.43396,2.444641 0,1.417603 0.43396,2.430176 0.43396,0.998108 1.21509,1.547787 0.78113,0.53522 1.80816,0.53522 z m 14.37854,-5.381103 v 8.491153 H 424.5148 V 88.770287 h 4.19495 v 3.977966 h -0.72327 q 0.72327,-2.025147 2.06854,-3.153443 1.34528,-1.142761 3.42829,-1.142761 1.63458,0 2.8352,0.708802 1.20062,0.694335 1.85156,2.039611 0.66541,1.345276 0.66541,3.283631 v 9.561587 h -4.25281 v -8.780459 q 0,-1.533326 -0.73773,-2.328919 -0.72327,-0.810058 -2.06854,-0.810058 -0.88239,0 -1.56226,0.361633 -0.67987,0.361633 -1.05597,1.128296 -0.3761,0.752197 -0.3761,1.938354 z m 21.85712,-6.78424 v 3.341491 h -10.02447 v -3.341491 z m -7.39178,-4.166016 h 4.26727 v 14.725708 q 0,0.766661 0.30377,1.070431 0.31824,0.30378 1.18616,0.30378 0.36163,0 0.85345,0 0.50629,0 0.78113,0 v 3.34149 q -0.39056,0 -1.0849,0 -0.69434,0 -1.40314,0 -2.51696,0 -3.71759,-0.98365 -1.18615,-0.98364 -1.18615,-3.066646 z m 13.79992,10.950256 v 8.491153 h -4.26727 V 82.492332 h 4.26727 v 10.255921 h -0.79559 q 0.72327,-2.025147 2.06854,-3.153443 1.34528,-1.142761 3.42829,-1.142761 1.63458,0 2.8352,0.708802 1.20062,0.694335 1.85156,2.039611 0.66541,1.345276 0.66541,3.283631 v 9.561587 h -4.25281 v -8.780459 q 0,-1.533326 -0.73773,-2.328919 -0.72327,-0.810058 -2.06854,-0.810058 -0.88239,0 -1.56226,0.361633 -0.67987,0.361633 -1.05597,1.128296 -0.3761,0.752197 -0.3761,1.938354 z m 17.34394,-13.062195 v 21.553348 h -4.26728 V 82.492332 Z m 3.60768,27.599858 v -3.37043 h 1.93836 q 0.52075,0 0.83899,-0.15912 0.31824,-0.15911 0.53522,-0.52075 0.23144,-0.34716 0.43396,-0.94024 l 0.41949,-1.11383 -5.87292,-15.217533 h 4.46978 l 2.56037,7.550903 q 0.43396,1.33081 0.83899,2.690552 0.40503,1.345278 0.78112,2.705018 h -1.18615 q 0.36163,-1.35974 0.76666,-2.705018 0.40503,-1.359742 0.83899,-2.690552 l 2.57483,-7.550903 h 4.42639 l -6.72638,17.633243 q -0.47736,1.27295 -1.15723,2.083 -0.6654,0.82453 -1.57672,1.21509 -0.89685,0.39057 -2.08301,0.39057 -0.69433,0 -1.4176,0 -0.7088,0 -1.40314,0 z m 29.59607,0.20251 q -2.1698,0 -3.68866,-0.62201 -1.50439,-0.60754 -2.37231,-1.72137 -0.85345,-1.11383 -1.07043,-2.60376 h 4.10815 q 0.15912,0.57861 0.56415,0.98364 0.41949,0.40503 1.0415,0.60754 0.62201,0.21698 1.4176,0.21698 1.56226,0 2.40125,-0.85345 0.85345,-0.85346 0.85345,-2.5025 v -2.34339 h -0.0145 q -0.44843,0.89685 -1.1283,1.47547 -0.6654,0.57861 -1.53332,0.85345 -0.85346,0.27484 -1.85157,0.27484 -1.99621,0 -3.48614,-0.99811 -1.48993,-0.9981 -2.31445,-2.74841 -0.81006,-1.750304 -0.81006,-4.021361 0,-2.299988 0.82452,-4.064758 0.83899,-1.779236 2.31446,-2.777344 1.48992,-0.998108 3.44274,-0.998108 0.99811,0 1.8371,0.274842 0.85346,0.274841 1.53333,0.838989 0.69433,0.564148 1.17169,1.417602 h 0.0145 v -2.213195 h 4.20942 V 103.4526 q 0,2.41571 -0.94025,3.9201 -0.94025,1.51886 -2.63269,2.2132 -1.67798,0.7088 -3.89118,0.7088 z m -0.17358,-9.64838 q 1.0849,0 1.88049,-0.53521 0.81006,-0.549686 1.25849,-1.547794 0.44842,-0.998108 0.44842,-2.328918 0,-1.330811 -0.44842,-2.314453 -0.44843,-0.998108 -1.25849,-1.533325 -0.79559,-0.549683 -1.88049,-0.549683 -1.02704,0 -1.7937,0.520752 -0.76666,0.506287 -1.20062,1.489929 -0.4195,0.983643 -0.4195,2.38678 0,1.403137 0.4195,2.38678 0.43396,0.983642 1.20062,1.504392 0.76666,0.52075 1.7937,0.52075 z m 10.66094,3.39936 V 88.770287 h 4.10816 v 2.603759 h 0.0434 q 0.4195,-1.374206 1.31635,-2.039611 0.89685,-0.665406 2.41571,-0.665406 0.3761,0 0.67987,0.01447 0.31824,0 0.57861,0.01447 v 3.630798 q -0.23144,-0.01446 -0.76666,-0.0434 -0.52075,-0.02893 -1.07044,-0.02893 -0.86792,0 -1.56225,0.405029 -0.69434,0.390564 -1.0849,1.171692 -0.39056,0.781128 -0.39056,1.938354 v 8.274173 z m 15.51091,0.26037 q -1.51886,0 -2.70501,-0.50628 -1.18616,-0.50629 -1.86603,-1.51886 -0.67987,-1.02704 -0.67987,-2.545902 0,-1.287414 0.47735,-2.140869 0.47736,-0.86792 1.30188,-1.388672 0.83899,-0.535217 1.90943,-0.810058 1.0849,-0.274842 2.27105,-0.376099 1.40314,-0.144653 2.22766,-0.274841 0.82453,-0.130188 1.18616,-0.376099 0.36164,-0.245911 0.36164,-0.737732 v -0.101257 q 0,-0.564148 -0.30378,-0.983643 -0.30377,-0.43396 -0.86792,-0.67987 -0.54968,-0.245911 -1.33081,-0.245911 -0.78113,0 -1.38867,0.245911 -0.59308,0.24591 -0.94025,0.694336 -0.34716,0.448425 -0.40503,1.041503 h -4.00689 q 0.10126,-1.576721 0.92578,-2.733947 0.83899,-1.157227 2.34338,-1.779236 1.5044,-0.636475 3.60187,-0.636475 1.56226,0 2.79181,0.361634 1.22955,0.347168 2.06854,1.027038 0.85346,0.679871 1.28742,1.649048 0.43396,0.969177 0.43396,2.19873 v 10.357181 h -4.16602 v -2.15534 h -0.0579 q -0.40503,0.7522 -0.99811,1.28742 -0.59308,0.53521 -1.44653,0.83899 -0.85346,0.2893 -2.02515,0.2893 z m 1.18616,-2.96539 q 1.02704,0 1.76477,-0.3761 0.7522,-0.3761 1.15723,-1.027037 0.40503,-0.65094 0.40503,-1.475464 v -1.533325 q -0.18805,0.101257 -0.49183,0.202514 -0.30377,0.08679 -0.7088,0.173584 -0.40503,0.07233 -0.88238,0.159119 -0.47736,0.08679 -0.98364,0.159119 -0.73774,0.115722 -1.33082,0.361633 -0.59307,0.231445 -0.94024,0.636475 -0.34717,0.390564 -0.34717,0.998108 0,0.535214 0.28931,0.925784 0.2893,0.39056 0.82452,0.59308 0.53522,0.20251 1.24402,0.20251 z m 14.78357,-5.786133 v 8.491153 h -4.26727 V 88.770287 h 4.19494 v 3.977966 h -0.72326 q 0.72326,-2.025147 2.06854,-3.153443 1.34527,-1.142761 3.42828,-1.142761 1.63458,0 2.83521,0.708802 1.20062,0.694335 1.85156,2.039611 0.6654,1.345276 0.6654,3.283631 v 9.561587 h -4.2528 v -8.780459 q 0,-1.533326 -0.73773,-2.328919 -0.72327,-0.810058 -2.06855,-0.810058 -0.88238,0 -1.56225,0.361633 -0.67987,0.361633 -1.05597,1.128296 -0.3761,0.752197 -0.3761,1.938354 z m 21.85712,-6.78424 v 3.341491 h -10.02448 v -3.341491 z m -7.39179,-4.166016 h 4.26727 v 14.725708 q 0,0.766661 0.30378,1.070431 0.31823,0.30378 1.18615,0.30378 0.36164,0 0.85346,0 0.50628,0 0.78113,0 v 3.34149 q -0.39057,0 -1.0849,0 -0.69434,0 -1.40314,0 -2.51697,0 -3.71759,-0.98365 -1.18616,-0.98364 -1.18616,-3.066646 z m 15.88294,25.487919 V 88.770287 h 4.20941 v 2.068542 h 0.0434 q 0.47736,-0.795593 1.14276,-1.316345 0.67987,-0.535217 1.53333,-0.795593 0.86792,-0.274842 1.85156,-0.274842 1.95282,0 3.42829,1.012573 1.48992,0.998108 2.31445,2.79181 0.83899,1.779235 0.83899,4.137085 0,2.386779 -0.82453,4.180483 -0.82452,1.7937 -2.29998,2.79181 -1.47547,0.9981 -3.48615,0.9981 -0.99811,0 -1.85156,-0.2893 -0.83899,-0.28931 -1.5044,-0.86792 -0.65094,-0.57862 -1.0849,-1.44654 h -0.0434 v 8.33204 z m 7.65216,-9.19996 q 1.0415,0 1.7937,-0.52075 0.76666,-0.535214 1.18615,-1.533322 0.43396,-1.012574 0.43396,-2.444641 0,-1.432068 -0.43396,-2.430176 -0.41949,-0.998108 -1.18615,-1.533325 -0.7522,-0.535218 -1.7937,-0.535218 -1.07044,0 -1.89496,0.564148 -0.81006,0.549683 -1.25849,1.562256 -0.43396,0.998108 -0.43396,2.372315 0,1.359741 0.43396,2.372314 0.44843,1.012573 1.25849,1.576719 0.82452,0.54968 1.89496,0.54968 z m 14.9485,3.41382 q -1.51886,0 -2.70502,-0.50628 -1.18616,-0.50629 -1.86603,-1.51886 -0.67987,-1.02704 -0.67987,-2.545902 0,-1.287414 0.47736,-2.140869 0.47735,-0.86792 1.30188,-1.388672 0.83899,-0.535217 1.90942,-0.810058 1.0849,-0.274842 2.27106,-0.376099 1.40314,-0.144653 2.22766,-0.274841 0.82452,-0.130188 1.18616,-0.376099 0.36163,-0.245911 0.36163,-0.737732 v -0.101257 q 0,-0.564148 -0.30377,-0.983643 -0.30377,-0.43396 -0.86792,-0.67987 -0.54968,-0.245911 -1.33081,-0.245911 -0.78113,0 -1.38867,0.245911 -0.59308,0.24591 -0.94025,0.694336 -0.34717,0.448425 -0.40503,1.041503 h -4.0069 q 0.10126,-1.576721 0.92578,-2.733947 0.83899,-1.157227 2.34339,-1.779236 1.50439,-0.636475 3.60187,-0.636475 1.56225,0 2.79181,0.361634 1.22955,0.347168 2.06854,1.027038 0.85345,0.679871 1.28741,1.649048 0.43396,0.969177 0.43396,2.19873 v 10.357181 h -4.16601 v -2.15534 h -0.0579 q -0.40503,0.7522 -0.99811,1.28742 -0.59308,0.53521 -1.44654,0.83899 -0.85345,0.2893 -2.02514,0.2893 z m 1.18615,-2.96539 q 1.02704,0 1.76478,-0.3761 0.75219,-0.3761 1.15722,-1.027037 0.40503,-0.65094 0.40503,-1.475464 v -1.533325 q -0.18805,0.101257 -0.49182,0.202514 -0.30377,0.08679 -0.7088,0.173584 -0.40503,0.07233 -0.88239,0.159119 -0.47735,0.08679 -0.98364,0.159119 -0.73773,0.115722 -1.33081,0.361633 -0.59308,0.231445 -0.94025,0.636475 -0.34716,0.390564 -0.34716,0.998108 0,0.535214 0.2893,0.925784 0.28931,0.39056 0.82453,0.59308 0.53521,0.20251 1.24401,0.20251 z m 10.24729,8.75153 v -3.37043 h 1.93835 q 0.52076,0 0.83899,-0.15912 0.31824,-0.15911 0.53522,-0.52075 0.23145,-0.34716 0.43396,-0.94024 l 0.41949,-1.11383 -5.87292,-15.217533 h 4.46979 l 2.56036,7.550903 q 0.43396,1.33081 0.83899,2.690552 0.40503,1.345278 0.78113,2.705018 h -1.18616 q 0.36163,-1.35974 0.76666,-2.705018 0.40503,-1.359742 0.83899,-2.690552 l 2.57483,-7.550903 h 4.42639 l -6.72638,17.633243 q -0.47735,1.27295 -1.15722,2.083 -0.66541,0.82453 -1.57672,1.21509 -0.89685,0.39057 -2.08301,0.39057 -0.69434,0 -1.4176,0 -0.70881,0 -1.40314,0 z m 22.58388,-5.69934 q -2.29999,0 -4.0503,-0.99811 -1.7503,-0.99811 -2.73394,-2.79181 -0.96918,-1.793703 -0.96918,-4.180483 0,-2.401245 0.96918,-4.194946 0.98364,-1.793701 2.73394,-2.791809 1.75031,-1.012573 4.0503,-1.012573 2.32891,0 4.06475,1.012573 1.75031,0.998108 2.71949,2.791809 0.98364,1.793701 0.98364,4.194946 0,2.38678 -0.98364,4.180483 -0.96918,1.7937 -2.71949,2.79181 -1.73584,0.99811 -4.06475,0.99811 z m 0,-3.45722 q 1.0415,0 1.82263,-0.53522 0.78113,-0.549679 1.21509,-1.562252 0.43396,-1.012574 0.43396,-2.415711 0,-1.432068 -0.43396,-2.444641 -0.43396,-1.012573 -1.21509,-1.54779 -0.78113,-0.549683 -1.82263,-0.549683 -1.02704,0 -1.80817,0.549683 -0.78113,0.535217 -1.21509,1.54779 -0.43396,1.012573 -0.43396,2.444641 0,1.417603 0.43396,2.430176 0.43396,0.998108 1.21509,1.547787 0.78113,0.53522 1.80817,0.53522 z m 15.4779,3.42828 q -1.62012,0 -2.8352,-0.69433 -1.20063,-0.7088 -1.86603,-2.05408 -0.66541,-1.35974 -0.66541,-3.283629 v -9.561584 h 4.26728 v 8.780456 q 0,1.533325 0.73773,2.343384 0.73773,0.795593 2.06854,0.795593 0.88239,0 1.54779,-0.36163 0.67987,-0.361636 1.05597,-1.128299 0.39056,-0.766663 0.39056,-1.938355 v -8.491149 h 4.25281 v 15.275393 h -4.18048 v -3.97797 h 0.72327 q -0.72327,2.02515 -2.06854,3.16791 -1.33082,1.12829 -3.42829,1.12829 z m 20.75775,-15.593623 v 3.341491 h -10.02447 v -3.341491 z m -7.39178,-4.166016 h 4.26727 v 14.725708 q 0,0.766661 0.30377,1.070431 0.31824,0.30378 1.18616,0.30378 0.36163,0 0.85346,0 0.50628,0 0.78112,0 v 3.34149 q -0.39056,0 -1.0849,0 -0.69433,0 -1.40313,0 -2.51697,0 -3.71759,-0.98365 -1.18616,-0.98364 -1.18616,-3.066646 z m 15.66394,19.817509 q -1.98175,0 -3.52954,-0.60755 -1.54779,-0.62201 -2.47357,-1.77923 -0.92579,-1.15723 -1.07044,-2.791813 h 4.19495 q 0.11572,0.998103 0.83899,1.562253 0.72326,0.56415 1.96728,0.56415 1.18616,0 1.85156,-0.44842 0.67988,-0.44843 0.67988,-1.157231 0,-0.607544 -0.52076,-0.983643 -0.50628,-0.376098 -1.44653,-0.549682 l -2.67609,-0.520752 q -2.22766,-0.43396 -3.38488,-1.562256 -1.15723,-1.128296 -1.15723,-2.893067 0,-1.446533 0.78113,-2.531433 0.79559,-1.0849 2.24212,-1.677978 1.461,-0.593079 3.45722,-0.593079 1.98175,0 3.45721,0.636475 1.47547,0.622009 2.29999,1.779236 0.83899,1.157226 0.88239,2.748413 h -3.94904 q -0.0145,-0.925781 -0.72327,-1.533325 -0.7088,-0.607544 -1.85156,-0.607544 -1.09936,0 -1.72137,0.477356 -0.62201,0.46289 -0.62201,1.142761 0,0.593078 0.49182,0.969177 0.49182,0.376099 1.35974,0.564148 l 2.89307,0.564148 q 2.31445,0.448425 3.39935,1.475464 1.09936,1.012573 1.09936,2.705017 0,1.518855 -0.86792,2.661625 -0.85345,1.12829 -2.38678,1.76477 -1.51886,0.62201 -3.51507,0.62201 z"
     id="text2-0"
     style="font-size:29.625px;font-family:Inter;-inkscape-font-specification:'Inter, @opsz=32,wght=700';font-variation-settings:'opsz' 32, 'wght' 700;fill:#ff6b01;stroke-width:0.0694337"
     aria-label="Monthly grant payouts" /><path
     d="m 896.5127,353.91412 7.56536,-21.55334 h 5.72828 l 7.56536,21.55334 h -4.93267 l -3.38489,-10.48736 q -0.62201,-2.06854 -1.28742,-4.25281 -0.65094,-2.19873 -1.4176,-4.99054 h 1.22955 q -0.79559,2.79181 -1.46099,4.99054 -0.65094,2.18427 -1.30188,4.25281 l -3.50061,10.48736 z m 4.80249,-4.70123 v -3.55847 h 11.26849 v 3.55847 z m 24.05008,5.0484 q -2.28552,0 -4.02136,-0.99811 -1.72138,-1.01257 -2.69056,-2.80627 -0.95471,-1.80817 -0.95471,-4.16602 0,-2.37231 0.95471,-4.16601 0.96918,-1.80817 2.69056,-2.82074 1.73584,-1.01258 4.02136,-1.01258 1.50439,0 2.77734,0.44843 1.27295,0.43396 2.2132,1.24402 0.95471,0.81006 1.51886,1.92389 0.56415,1.09936 0.6654,2.44464 h -4.12262 q -0.0868,-0.59308 -0.3327,-1.07044 -0.23144,-0.47735 -0.60754,-0.82452 -0.3761,-0.34717 -0.89685,-0.53522 -0.50629,-0.18805 -1.15723,-0.18805 -1.07043,0 -1.8371,0.56415 -0.76666,0.54968 -1.18615,1.57672 -0.40503,1.01258 -0.40503,2.41571 0,1.38868 0.40503,2.40125 0.41949,1.01257 1.18615,1.57672 0.76667,0.54968 1.8371,0.54968 0.65094,0 1.15723,-0.18805 0.50628,-0.18805 0.86792,-0.53521 0.3761,-0.34717 0.60754,-0.82453 0.23145,-0.49182 0.3327,-1.09936 h 4.15155 q -0.0723,1.33081 -0.63647,2.44464 -0.54968,1.09936 -1.5044,1.92389 -0.95471,0.82452 -2.24212,1.27295 -1.27295,0.44842 -2.79181,0.44842 z m 18.22632,-15.62256 v 3.34149 h -10.02448 v -3.34149 z m -7.39179,-4.16601 h 4.26728 v 14.72571 q 0,0.76666 0.30377,1.07043 0.31823,0.30377 1.18615,0.30377 0.36164,0 0.85346,0 0.50629,0 0.78113,0 v 3.34149 q -0.39057,0 -1.0849,0 -0.69434,0 -1.40314,0 -2.51697,0 -3.71759,-0.98364 -1.18616,-0.98364 -1.18616,-3.06665 z m 9.53266,19.4414 v -15.27539 h 4.26727 v 15.27539 z m 2.1264,-17.19928 q -1.05597,0 -1.75031,-0.63647 -0.69433,-0.65094 -0.69433,-1.63458 0,-0.98365 0.69433,-1.62012 0.69434,-0.65094 1.73584,-0.65094 1.05597,0 1.75031,0.65094 0.69434,0.63647 0.69434,1.62012 0,0.98364 -0.69434,1.63458 -0.69434,0.63647 -1.73584,0.63647 z m 9.47479,17.19928 -5.65594,-15.27539 h 4.46979 l 2.51696,7.55091 q 0.44843,1.34527 0.83899,2.69055 0.39057,1.34527 0.78113,2.70502 h -1.01257 q 0.3761,-1.35975 0.75219,-2.70502 0.39057,-1.34528 0.81006,-2.69055 l 2.48804,-7.55091 h 4.42639 l -5.67041,15.27539 z m 18.51913,0.34717 q -2.31445,0 -4.03582,-1.01257 -1.70691,-1.02704 -2.66163,-2.83521 -0.94024,-1.80816 -0.94024,-4.12262 0,-2.34338 0.95471,-4.13708 0.96918,-1.80817 2.66162,-2.83521 1.69244,-1.02704 3.87671,-1.02704 1.69244,0 3.06665,0.57862 1.37421,0.56415 2.37231,1.63458 0.99811,1.05597 1.53333,2.5025 0.54968,1.44654 0.54968,3.19684 v 1.14276 h -13.49615 v -2.71948 h 11.44208 l -1.92389,0.65094 q 0,-1.15723 -0.4195,-1.99622 -0.41949,-0.83898 -1.20062,-1.28741 -0.76666,-0.46289 -1.8371,-0.46289 -1.05597,0 -1.82263,0.46289 -0.76666,0.44843 -1.18616,1.28741 -0.41949,0.83899 -0.41949,1.99622 v 1.85156 q 0,1.18616 0.41949,2.08301 0.43396,0.88239 1.24402,1.37421 0.81006,0.47735 1.95282,0.47735 0.83899,0 1.47547,-0.23144 0.65093,-0.24591 1.08489,-0.67987 0.44843,-0.44843 0.63648,-1.04151 h 3.89117 q -0.27484,1.51886 -1.28741,2.67609 -1.01257,1.15723 -2.5459,1.82263 -1.53332,0.65094 -3.38489,0.65094 z m 23.23133,5.90186 q -2.1698,0 -3.68866,-0.62201 -1.5044,-0.60755 -2.37232,-1.72138 -0.85345,-1.11383 -1.07043,-2.60376 h 4.10815 q 0.15912,0.57862 0.56415,0.98365 0.41949,0.40503 1.0415,0.60754 0.62201,0.21698 1.41761,0.21698 1.56229,0 2.40129,-0.85345 0.8534,-0.85346 0.8534,-2.50251 v -2.34338 h -0.014 q -0.4484,0.89685 -1.1283,1.47546 -0.6654,0.57862 -1.53328,0.85346 -0.85345,0.27484 -1.85156,0.27484 -1.99622,0 -3.48615,-0.99811 -1.48993,-0.99811 -2.31445,-2.74841 -0.81006,-1.75031 -0.81006,-4.02136 0,-2.29999 0.82452,-4.06476 0.83899,-1.77924 2.31446,-2.77735 1.48993,-0.9981 3.44275,-0.9981 0.9981,0 1.83709,0.27484 0.85348,0.27484 1.53328,0.83899 0.6944,0.56414 1.1717,1.4176 h 0.014 v -2.2132 h 4.2094 v 14.68231 q 0,2.41572 -0.9402,3.92011 -0.9403,1.51886 -2.6327,2.2132 -1.678,0.7088 -3.89119,0.7088 z m -0.17359,-9.64838 q 1.0849,0 1.88048,-0.53522 0.8101,-0.54968 1.2585,-1.54779 0.4484,-0.99811 0.4484,-2.32892 0,-1.33081 -0.4484,-2.31445 -0.4484,-0.99811 -1.2585,-1.53332 -0.79558,-0.54969 -1.88048,-0.54969 -1.02704,0 -1.7937,0.52076 -0.76666,0.50628 -1.20062,1.48992 -0.4195,0.98365 -0.4195,2.38678 0,1.40314 0.4195,2.38678 0.43396,0.98365 1.20062,1.5044 0.76666,0.52075 1.7937,0.52075 z m 10.66098,3.39935 v -15.27539 h 4.1081 v 2.60376 h 0.043 q 0.4195,-1.3742 1.3164,-2.03961 0.8968,-0.6654 2.4157,-0.6654 0.3761,0 0.6798,0.0145 0.3183,0 0.5787,0.0145 v 3.63079 q -0.2315,-0.0145 -0.7667,-0.0434 -0.5208,-0.0289 -1.0704,-0.0289 -0.868,0 -1.5623,0.40503 -0.6943,0.39056 -1.0849,1.17169 -0.3906,0.78113 -0.3906,1.93835 v 8.27417 z m 15.5109,0.26038 q -1.5189,0 -2.705,-0.50629 -1.1862,-0.50628 -1.8661,-1.51886 -0.6798,-1.02704 -0.6798,-2.5459 0,-1.28741 0.4773,-2.14086 0.4774,-0.86792 1.3019,-1.38868 0.839,-0.53521 1.9094,-0.81006 1.0849,-0.27484 2.2711,-0.37609 1.4031,-0.14466 2.2276,-0.27484 0.8246,-0.13019 1.1862,-0.3761 0.3616,-0.24591 0.3616,-0.73774 v -0.10125 q 0,-0.56415 -0.3037,-0.98365 -0.3038,-0.43396 -0.868,-0.67987 -0.5496,-0.24591 -1.3308,-0.24591 -0.7811,0 -1.3886,0.24591 -0.5931,0.24591 -0.9403,0.69434 -0.3472,0.44843 -0.405,1.0415 h -4.0069 q 0.1012,-1.57672 0.9258,-2.73394 0.839,-1.15723 2.3433,-1.77924 1.5044,-0.63647 3.6019,-0.63647 1.5623,0 2.7918,0.36163 1.2296,0.34717 2.0686,1.02704 0.8534,0.67987 1.2874,1.64905 0.4339,0.96917 0.4339,2.19873 v 10.35717 h -4.166 v -2.15533 h -0.058 q -0.4051,0.7522 -0.9981,1.28741 -0.5931,0.53522 -1.4466,0.83899 -0.8534,0.28931 -2.0251,0.28931 z m 1.1861,-2.96539 q 1.0271,0 1.7648,-0.3761 0.7522,-0.3761 1.1572,-1.02704 0.4051,-0.65094 0.4051,-1.47546 v -1.53333 q -0.1881,0.10126 -0.4919,0.20251 -0.3037,0.0868 -0.7088,0.17359 -0.405,0.0723 -0.8823,0.15912 -0.4774,0.0868 -0.9837,0.15912 -0.7377,0.11572 -1.3308,0.36163 -0.5931,0.23144 -0.9402,0.63647 -0.3472,0.39057 -0.3472,0.99811 0,0.53522 0.2893,0.92578 0.2893,0.39057 0.8245,0.59308 0.5352,0.20252 1.244,0.20252 z m 14.7836,-5.78614 v 8.49115 h -4.2673 v -15.27539 h 4.195 v 3.97797 h -0.7233 q 0.7233,-2.02515 2.0685,-3.15344 1.3453,-1.14276 3.4283,-1.14276 1.6346,0 2.8352,0.7088 1.2007,0.69433 1.8516,2.03961 0.6654,1.34527 0.6654,3.28363 v 9.56158 h -4.2528 v -8.78045 q 0,-1.53333 -0.7377,-2.32892 -0.7233,-0.81006 -2.0686,-0.81006 -0.8824,0 -1.5622,0.36163 -0.6799,0.36164 -1.056,1.1283 -0.3761,0.7522 -0.3761,1.93835 z m 21.8571,-6.78424 v 3.34149 h -10.0245 v -3.34149 z m -7.3918,-4.16601 h 4.2673 v 14.72571 q 0,0.76666 0.3038,1.07043 0.3182,0.30377 1.1861,0.30377 0.3617,0 0.8535,0 0.5063,0 0.7811,0 v 3.34149 q -0.3906,0 -1.0849,0 -0.6943,0 -1.4031,0 -2.517,0 -3.7176,-0.98364 -1.1862,-0.98364 -1.1862,-3.06665 z m 16.2938,19.78857 q -2.3144,0 -4.0358,-1.01257 -1.7069,-1.02704 -2.6616,-2.83521 -0.9403,-1.80816 -0.9403,-4.12262 0,-2.34338 0.9547,-4.13708 0.9692,-1.80817 2.6617,-2.83521 1.6924,-1.02704 3.8767,-1.02704 1.6924,0 3.0666,0.57862 1.3742,0.56415 2.3723,1.63458 0.9981,1.05597 1.5334,2.5025 0.5496,1.44654 0.5496,3.19684 v 1.14276 h -13.4961 v -2.71948 h 11.4421 l -1.9239,0.65094 q 0,-1.15723 -0.4195,-1.99622 -0.4195,-0.83898 -1.2006,-1.28741 -0.7667,-0.46289 -1.8371,-0.46289 -1.056,0 -1.8227,0.46289 -0.7666,0.44843 -1.1861,1.28741 -0.4195,0.83899 -0.4195,1.99622 v 1.85156 q 0,1.18616 0.4195,2.08301 0.4339,0.88239 1.244,1.37421 0.81,0.47735 1.9528,0.47735 0.839,0 1.4755,-0.23144 0.6509,-0.24591 1.0849,-0.67987 0.4484,-0.44843 0.6364,-1.04151 h 3.8912 q -0.2748,1.51886 -1.2874,2.67609 -1.0126,1.15723 -2.5459,1.82263 -1.5333,0.65094 -3.3849,0.65094 z m 16.6352,0 q -2.3145,0 -4.0359,-1.01257 -1.7069,-1.02704 -2.6616,-2.83521 -0.9402,-1.80816 -0.9402,-4.12262 0,-2.34338 0.9547,-4.13708 0.9691,-1.80817 2.6616,-2.83521 1.6924,-1.02704 3.8767,-1.02704 1.6924,0 3.0666,0.57862 1.3743,0.56415 2.3724,1.63458 0.9981,1.05597 1.5333,2.5025 0.5497,1.44654 0.5497,3.19684 v 1.14276 h -13.4962 v -2.71948 h 11.4421 l -1.9239,0.65094 q 0,-1.15723 -0.4195,-1.99622 -0.4195,-0.83898 -1.2006,-1.28741 -0.7667,-0.46289 -1.8371,-0.46289 -1.056,0 -1.8226,0.46289 -0.7667,0.44843 -1.1862,1.28741 -0.4195,0.83899 -0.4195,1.99622 v 1.85156 q 0,1.18616 0.4195,2.08301 0.434,0.88239 1.244,1.37421 0.8101,0.47735 1.9528,0.47735 0.839,0 1.4755,-0.23144 0.6509,-0.24591 1.0849,-0.67987 0.4484,-0.44843 0.6365,-1.04151 h 3.8912 q -0.2749,1.51886 -1.2875,2.67609 -1.0125,1.15723 -2.5459,1.82263 -1.5333,0.65094 -3.3848,0.65094 z m 16.0131,0.0289 q -1.9818,0 -3.5296,-0.60754 -1.5478,-0.62201 -2.4735,-1.77924 -0.9258,-1.15722 -1.0705,-2.79181 h 4.195 q 0.1157,0.99811 0.839,1.56226 0.7232,0.56415 1.9672,0.56415 1.1862,0 1.8516,-0.44843 0.6799,-0.44842 0.6799,-1.15722 0,-0.60755 -0.5208,-0.98365 -0.5063,-0.3761 -1.4465,-0.54968 l -2.6761,-0.52075 q -2.2277,-0.43396 -3.3849,-1.56226 -1.1572,-1.12829 -1.1572,-2.89306 0,-1.44654 0.7811,-2.53144 0.7956,-1.0849 2.2421,-1.67798 1.461,-0.59307 3.4573,-0.59307 1.9817,0 3.4572,0.63647 1.4754,0.62201 2.3,1.77924 0.839,1.15722 0.8823,2.74841 h -3.949 q -0.014,-0.92578 -0.7233,-1.53333 -0.7088,-0.60754 -1.8515,-0.60754 -1.0994,0 -1.7214,0.47736 -0.622,0.46289 -0.622,1.14276 0,0.59308 0.4918,0.96917 0.4918,0.3761 1.3598,0.56415 l 2.893,0.56415 q 2.3145,0.44843 3.3994,1.47546 1.0993,1.01258 1.0993,2.70502 0,1.51886 -0.8679,2.66162 -0.8534,1.1283 -2.3868,1.76477 -1.5188,0.62201 -3.515,0.62201 z"
     id="text2-0-8"
     style="font-size:29.625px;font-family:Inter;-inkscape-font-specification:'Inter, @opsz=32,wght=700';font-variation-settings:'opsz' 32, 'wght' 700;fill:#ff6b01;stroke-width:0.0694337"
     aria-label="Active grantees" /></svg>
