<svg role="img" viewBox="0 0 576 512" xmlns="http://www.w3.org/2000/svg"><title>Website icon</title><path d="M575.8 255.5c0 18-15 32.1-32 32.1h-32l.7 160.2c0 2.7-.2 5.4-.5 8.1V472c0 22.1-17.9 40-40 40H456c-1.1 0-2.2 0-3.3-.1c-1.4 .1-2.8 .1-4.2 .1H416 392c-22.1 0-40-17.9-40-40V400 334c0-17.7-14.3-32-32-32H256c-17.7 0-32 14.3-32 32v66 72c0 22.1-17.9 40-40 40H152 128.1c-1.5 0-3-.1-4.5-.2c-1.2 .1-2.4 .2-3.6 .2H104c-22.1 0-40-17.9-40-40v-72c0-.7 0-1.4 0-2.1V288 256 237.3c0-15 5-29.6 14.2-41.4L275.2 8.3C281.7 0 291.3-2.5 299.9 1.4c2.2 1 4.2 2.5 5.9 4.3l7.1 7.8 163.4 170.1c9.3 9.7 14.6 22.7 14.6 36.2v13.7z"/></svg>
