<svg role="img" viewBox="-2 -2 24 24" xmlns="http://www.w3.org/2000/svg"><title>Nostr icon</title><path d="M17.8748 13.7407V6.25927C19.1116 5.80741 19.9927 4.61481 19.9927 3.22963C19.9927 1.45185 18.5413 0 16.7642 0C14.9871 0 13.5358 1.44444 13.5358 3.22963C13.5358 4.62222 14.4169 5.80741 15.6535 6.25927V13.7407C15.5721 13.7704 15.4906 13.8074 15.4092 13.8444L6.1533 4.58519C6.34583 4.17038 6.44949 3.71111 6.44949 3.22963C6.44949 1.44444 5.00557 0 3.22844 0C1.45132 0 0 1.44444 0 3.22963C0 4.62222 0.881158 5.80741 2.11774 6.25927L2.11774 13.7407C0.881158 14.1926 0 15.3852 0 16.7703C0 18.5481 1.44391 20 3.22844 20C5.01297 20 6.45689 18.5481 6.45689 16.7703C6.45689 15.3778 5.57573 14.1926 4.33914 13.7407V6.25927C4.4206 6.22963 4.50205 6.19259 4.5835 6.15556L13.8394 15.4148C13.6468 15.8297 13.5432 16.2889 13.5432 16.7703C13.5432 18.5481 14.9871 20 16.7717 20C18.5562 20 20 18.5481 20 16.7703C20 15.3778 19.1189 14.1926 17.8823 13.7407H17.8748Z"/></svg>
