<svg width="400" height="400" viewBox="0 0 400 400" fill="none" xmlns="http://www.w3.org/2000/svg">
  <defs>
    <linearGradient id="honest-node" x1="0" y1="0" x2="1" y2="1">
      <stop offset="0" stop-color="#7dd3fc" />
      <stop offset="1" stop-color="#38bdf8" />
    </linearGradient>
    <linearGradient id="victim-node" x1="120" y1="120" x2="280" y2="280" gradientUnits="userSpaceOnUse">
      <stop offset="0" stop-color="#bae6fd" />
      <stop offset="1" stop-color="#0ea5e9" />
    </linearGradient>
    <linearGradient id="attacker-node" x1="0" y1="0" x2="1" y2="1">
      <stop offset="0" stop-color="#fdba74" />
      <stop offset="1" stop-color="#f97316" />
    </linearGradient>
  </defs>

  <g stroke="#94a3b8" stroke-width="5" stroke-linecap="round" opacity="0.6">
    <path d="M74 114 L142 86" />
    <path d="M142 86 L224 72" />
    <path d="M224 72 L304 96" />
    <path d="M304 96 L338 166" />
    <path d="M338 166 L326 248" />
    <path d="M326 248 L270 314" />
    <path d="M270 314 L188 334" />
    <path d="M188 334 L104 306" />
    <path d="M104 306 L62 234" />
    <path d="M62 234 L74 114" />
    <path d="M74 114 L224 72" />
    <path d="M304 96 L188 334" />
    <path d="M62 234 L270 314" />
  </g>

  <g stroke="#cbd5e1" stroke-width="4" stroke-linecap="round" opacity="0.7">
    <path d="M86 126 L142 146" />
    <path d="M154 94 L172 140" />
    <path d="M236 82 L228 138" />
    <path d="M298 110 L258 150" />
    <path d="M324 180 L270 188" />
    <path d="M312 250 L262 228" />
    <path d="M258 302 L228 256" />
    <path d="M184 322 L184 262" />
    <path d="M110 294 L148 248" />
    <path d="M74 226 L132 214" />
  </g>

  <g stroke="#f97316" stroke-width="8" stroke-linecap="round">
    <path d="M142 146 L188 182" />
    <path d="M172 140 L194 176" />
    <path d="M228 138 L208 176" />
    <path d="M258 150 L214 184" />
    <path d="M270 188 L226 194" />
    <path d="M262 228 L220 206" />
    <path d="M228 256 L206 222" />
    <path d="M184 262 L188 224" />
    <path d="M148 248 L178 216" />
    <path d="M132 214 L174 202" />
  </g>

  <circle cx="200" cy="200" r="82" stroke="#fb923c" stroke-width="7" stroke-dasharray="10 12" opacity="0.8" />

  <g fill="url(#honest-node)" stroke="#0284c7" stroke-width="6">
    <circle cx="74" cy="114" r="18" />
    <circle cx="142" cy="86" r="18" />
    <circle cx="224" cy="72" r="18" />
    <circle cx="304" cy="96" r="18" />
    <circle cx="338" cy="166" r="18" />
    <circle cx="326" cy="248" r="18" />
    <circle cx="270" cy="314" r="18" />
    <circle cx="188" cy="334" r="18" />
    <circle cx="104" cy="306" r="18" />
    <circle cx="62" cy="234" r="18" />
  </g>

  <g fill="url(#attacker-node)" stroke="#ea580c" stroke-width="6">
    <circle cx="142" cy="146" r="16" />
    <circle cx="172" cy="140" r="16" />
    <circle cx="228" cy="138" r="16" />
    <circle cx="258" cy="150" r="16" />
    <circle cx="270" cy="188" r="16" />
    <circle cx="262" cy="228" r="16" />
    <circle cx="228" cy="256" r="16" />
    <circle cx="184" cy="262" r="16" />
    <circle cx="148" cy="248" r="16" />
    <circle cx="132" cy="214" r="16" />
  </g>

  <circle cx="200" cy="200" r="44" fill="url(#victim-node)" stroke="#0f172a" stroke-width="6" />
  <path d="M224 160C244 171 258 193 258 218C258 242 245 264 224 276C214 257 209 238 209 218C209 198 214 179 224 160Z" fill="#0f172a" fill-opacity="0.94" />
  <circle cx="186" cy="188" r="6" fill="#f8fafc" />
</svg>
