<svg xmlns="http://www.w3.org/2000/svg" width="512" height="512" viewBox="0 0 512 512" version="1.1">
	<path d="M 170.920 144.991 C 161.357 146.649, 152.426 153.194, 147.438 162.196 L 144.500 167.500 144.228 254.477 C 143.918 353.959, 143.441 347.945, 152.417 357.766 C 155.377 361.005, 159.580 364.292, 162.497 365.651 L 167.500 367.980 256.054 367.990 L 344.607 368 349.704 365.460 C 356.616 362.016, 363.205 354.741, 365.875 347.605 L 368.043 341.811 367.771 255.155 L 367.500 168.500 364.720 162.839 C 361.386 156.051, 355.738 150.707, 348.120 147.135 L 342.500 144.500 259 144.349 C 213.075 144.266, 173.439 144.555, 170.920 144.991 M 268.619 169.628 C 266.366 170.858, 265.210 170.961, 263.322 170.101 C 261.993 169.495, 260.097 169, 259.108 169 C 256.875 169, 254 172.059, 254 174.436 C 254 175.743, 253.536 176.019, 252.250 175.478 C 247.871 173.638, 246.268 173.844, 244.165 176.518 L 242.044 179.214 238.818 176.500 C 235.255 173.502, 235.210 173.523, 230.892 180.033 L 229.285 182.457 225.545 179.174 C 223.489 177.368, 221.062 176.028, 220.153 176.195 C 219.244 176.363, 217.600 178.385, 216.500 180.689 C 214.595 184.680, 214.329 184.853, 210.894 184.335 C 207.729 183.857, 207.213 184.078, 206.672 186.145 C 206.334 187.440, 206.323 190.166, 206.648 192.203 C 206.974 194.239, 206.953 197.052, 206.601 198.453 C 206.052 200.641, 205.409 201, 202.038 201 C 197.895 201, 195 203.560, 195 207.223 C 195 209.119, 192.531 209.668, 191.500 208 C 191.160 207.450, 190.036 207, 189.002 207 C 187.516 207, 186.990 207.994, 186.487 211.750 C 185.590 218.448, 185.322 219, 182.966 219 C 180.459 219, 177 220.715, 177 221.958 C 177 222.447, 178.125 224.184, 179.500 225.818 C 182.598 229.500, 182.598 229.822, 179.500 231 C 176.099 232.293, 176.360 234.422, 180.250 237.108 C 182.037 238.342, 183.681 239.492, 183.903 239.662 C 184.124 239.833, 183.087 240.930, 181.598 242.101 C 178.601 244.459, 178.431 247.626, 181.208 249.366 C 182.809 250.370, 187.665 249.615, 193.105 247.517 C 195.199 246.709, 195.979 252.875, 195.991 270.333 C 195.998 280.150, 196.294 283.070, 197.250 282.754 C 198.762 282.256, 199.737 267.949, 198.995 257.157 C 198.718 253.119, 198.718 249.684, 198.995 249.525 C 199.273 249.365, 200.512 249.617, 201.750 250.085 C 203.994 250.933, 204 251.001, 204 273.968 C 204 292.565, 204.258 297, 205.342 297 C 206.395 297, 206.823 292.834, 207.333 277.584 C 207.691 266.905, 207.706 256.780, 207.367 255.084 C 206.810 252.300, 206.992 252, 209.236 252 C 211.478 252, 211.791 252.515, 212.429 257.250 C 212.818 260.137, 213.531 269.025, 214.013 277 C 214.494 284.975, 215.202 296.263, 215.586 302.085 L 216.283 312.670 211.907 314.421 C 209.500 315.384, 203.829 316.553, 199.305 317.020 C 191.180 317.858, 185.163 319.893, 182.960 322.548 C 180.976 324.939, 182.839 325.825, 188.750 325.301 C 192.279 324.988, 196.818 325.380, 200.500 326.316 C 204.601 327.358, 208.003 327.599, 211.250 327.079 C 213.863 326.660, 216 326.607, 216 326.962 C 216 327.317, 214.425 329.134, 212.500 331 C 207.942 335.418, 207.849 337.492, 212.250 336.566 C 220.694 334.788, 227.056 334.011, 233.215 334.006 C 239.267 334.001, 240.273 333.699, 243.395 330.958 C 245.300 329.286, 248.044 325.894, 249.493 323.422 L 252.128 318.926 257.314 321.878 C 260.166 323.502, 265.089 325.303, 268.254 325.882 C 274.777 327.074, 275.775 327.539, 284.829 333.612 C 288.428 336.025, 291.963 338, 292.686 338 C 295.667 338, 293.217 327.165, 289.212 322.638 C 287.533 320.741, 287.634 320.716, 294.401 321.328 C 299.093 321.753, 303.415 322.962, 307.901 325.104 C 318.501 330.166, 335.755 330.422, 329.350 325.423 C 324.118 321.339, 307.099 311.932, 304.025 311.425 C 302.086 311.106, 300.015 310.698, 299.422 310.520 C 297.470 309.932, 295.665 284.932, 296.434 269.126 C 296.824 261.095, 297.224 254.446, 297.322 254.352 C 297.420 254.259, 299.580 254.418, 302.122 254.707 L 306.745 255.231 307.622 277.128 C 308.811 306.773, 310.579 306.412, 310.262 276.589 L 310.023 254.211 312.435 253.606 C 313.761 253.273, 316.943 251.400, 319.506 249.443 C 322.846 246.894, 325.568 245.720, 329.113 245.300 C 331.833 244.978, 334.317 244.296, 334.633 243.784 C 334.950 243.273, 333.807 240.600, 332.094 237.845 L 328.981 232.836 330.990 230.014 C 334.054 225.711, 333.630 224, 329.500 224 C 325.438 224, 325.226 223.453, 328.105 220.388 C 330.813 217.505, 329.961 216.271, 324.273 214.839 L 319.666 213.678 322.460 211.450 C 325.834 208.760, 325.224 207.447, 319.853 205.838 L 315.789 204.620 319.021 201.982 L 322.254 199.345 319.464 197.151 C 317.930 195.944, 315.586 194.683, 314.255 194.349 C 312.601 193.934, 311.998 193.228, 312.352 192.121 C 312.636 191.229, 313.195 189.416, 313.593 188.091 L 314.317 185.681 307.658 186.303 L 301 186.925 301 184.044 C 301 177.942, 298.354 176.439, 293 179.500 C 289.149 181.701, 288.307 181.318, 287.625 177.057 C 286.829 172.076, 285.958 171.573, 281.422 173.468 C 276.524 175.515, 276.429 175.488, 275.359 171.757 C 274.275 167.975, 272.608 167.449, 268.619 169.628 M 258.260 173.250 C 255.848 176.313, 256.030 179.553, 258.782 182.532 C 260.665 184.570, 261.500 186.553, 261.500 188.987 C 261.500 192.238, 261.761 192.538, 265 193.010 C 268.244 193.482, 268.481 193.756, 268.246 196.760 C 268.064 199.089, 268.415 200, 269.496 200 C 270.341 200, 271 200.890, 271 202.031 C 271 204.588, 273.532 205.634, 275.589 203.926 C 276.879 202.856, 277.311 202.880, 278.061 204.064 C 278.561 204.854, 278.976 205.838, 278.985 206.250 C 279.007 207.367, 282.785 207.157, 283.500 206 C 284.657 204.128, 285.956 204.994, 288 209 C 289.122 211.200, 290.678 213, 291.456 213 C 292.235 213, 293.884 211.200, 295.120 209 C 297.588 204.610, 298.496 204.234, 301.052 206.547 C 302.597 207.946, 302.919 207.938, 304.390 206.467 C 305.286 205.571, 305.793 204.474, 305.518 204.029 C 305.242 203.583, 306.138 202.484, 307.509 201.586 C 310.003 199.952, 310.980 196, 308.889 196 C 308.160 196, 308.004 194.794, 308.434 192.500 C 309.206 188.386, 308.900 188.315, 301.542 190.901 C 298.568 191.946, 295.901 192.568, 295.616 192.283 C 295.331 191.997, 295.357 190.467, 295.674 188.882 C 296.283 185.834, 294.427 184.724, 293.362 187.500 C 292.706 189.209, 290 189.554, 290 187.928 C 290 187.339, 288.762 187.002, 287.250 187.178 C 285.075 187.433, 284.436 187.052, 284.194 185.354 C 283.782 182.461, 280.828 179.952, 277.407 179.587 C 275.861 179.422, 274.397 178.660, 274.154 177.894 C 272.217 171.779, 272.338 171.871, 268.588 173.659 C 265.366 175.196, 264.947 175.195, 262.597 173.656 C 259.569 171.671, 259.508 171.666, 258.260 173.250 M 246.070 179.869 C 245.520 180.896, 245.306 181.973, 245.594 182.260 C 246.463 183.130, 243.423 189.369, 241.138 191.405 C 239.962 192.453, 239 193.915, 239 194.655 C 239 196.206, 236.413 196.477, 235.513 195.020 C 235.131 194.403, 234.136 194.496, 232.823 195.270 C 231.168 196.247, 230.645 196.243, 230.286 195.250 C 230.037 194.563, 228.957 194, 227.885 194 C 225.291 194, 224.552 191.724, 225.895 187.871 C 226.822 185.212, 226.720 184.508, 225.247 183.390 C 221.173 180.297, 216.406 183.013, 217.638 187.725 C 218.359 190.480, 216.294 191.576, 214.108 189.598 C 213.137 188.719, 211.815 188, 211.171 188 C 209.770 188, 209.608 194.831, 210.958 196.966 C 211.519 197.854, 211.524 198.868, 210.971 199.535 C 209.828 200.912, 212.519 205, 214.569 205 C 215.706 205, 215.884 205.873, 215.384 209 C 214.774 212.816, 215.963 214.486, 217.510 211.984 C 218.651 210.138, 220.174 212.170, 219.541 214.693 C 219.152 216.244, 219.297 216.934, 219.931 216.543 C 220.486 216.199, 222.282 216.612, 223.921 217.459 C 228 219.569, 228.892 219.413, 230.040 216.395 C 230.816 214.354, 231.515 213.912, 233.273 214.354 C 236.222 215.094, 237.719 214.065, 238.149 211 C 238.461 208.776, 238.908 208.536, 242.199 208.823 L 245.898 209.144 245.314 205.550 C 244.877 202.854, 245.200 201.436, 246.607 199.882 C 248.447 197.848, 248.440 197.775, 246.241 195.994 C 245.009 194.996, 244 193.689, 244 193.090 C 244 191.209, 246.368 191.945, 249.995 194.951 L 253.491 197.849 251.124 200.369 C 249.248 202.365, 248.882 203.575, 249.362 206.194 C 250.129 210.383, 249.254 211.733, 245.497 212.160 C 243.287 212.411, 242.578 212.962, 242.796 214.257 C 243.120 216.186, 239.552 218, 235.435 218 C 233.932 218, 233 218.577, 233 219.507 C 233 220.335, 231.875 221.991, 230.500 223.187 C 227.380 225.900, 227.050 229.436, 230.005 228.498 C 231.345 228.073, 232.212 228.390, 232.621 229.455 C 233.085 230.664, 234.039 230.896, 236.582 230.419 C 239.008 229.964, 240.392 230.249, 241.595 231.453 C 242.510 232.367, 243.875 232.864, 244.629 232.558 C 245.383 232.251, 246.621 231.747, 247.381 231.439 C 248.248 231.086, 249.613 232.294, 251.054 234.689 C 252.315 236.785, 253.456 238.649, 253.588 238.831 C 253.720 239.013, 254.767 238.660, 255.914 238.046 C 257.454 237.222, 258.554 237.226, 260.115 238.062 C 261.942 239.039, 262.631 238.755, 265.170 235.975 C 267.694 233.212, 268.596 232.835, 271.542 233.313 C 274.033 233.717, 275.212 233.444, 275.843 232.316 C 276.475 231.187, 277.845 230.871, 280.860 231.158 C 284.346 231.491, 285.104 231.231, 285.618 229.527 C 285.955 228.412, 287.125 226.521, 288.220 225.324 C 289.314 224.127, 289.902 222.651, 289.527 222.043 C 288.689 220.687, 282.421 221.647, 279.285 223.612 C 275.736 225.836, 273.291 225.248, 270.417 221.480 C 267.986 218.293, 267.400 218.022, 264.229 218.617 L 260.726 219.274 261.410 215.630 C 262.024 212.354, 261.836 211.888, 259.547 211.018 C 256.457 209.843, 256.444 209.672, 259.159 205.999 L 261.318 203.078 258.909 201.110 C 256.983 199.537, 256.749 198.888, 257.743 197.878 C 258.736 196.868, 258.538 196.138, 256.760 194.245 C 254.640 191.988, 254.612 191.742, 256.161 189.042 C 257.774 186.231, 257.753 186.174, 253.606 182.104 C 248.956 177.540, 247.541 177.120, 246.070 179.869 M 306.659 210.631 C 303.141 212.933, 302.671 213.012, 301.080 211.572 C 300.124 210.708, 299.005 210, 298.592 210 C 297.262 210, 299.135 216.437, 301.039 218.413 C 302.700 220.137, 302.740 220.602, 301.448 223.100 C 299.767 226.350, 300.389 228.671, 303.177 229.556 C 304.716 230.045, 305.028 230.752, 304.548 232.663 C 304.010 234.808, 304.232 235.096, 306.214 234.819 C 308.146 234.549, 308.580 235.042, 309.014 238 C 309.421 240.774, 309.683 241.114, 310.276 239.637 C 310.854 238.198, 311.333 238.031, 312.385 238.905 C 313.134 239.526, 314.544 239.729, 315.518 239.355 C 316.668 238.913, 317.759 239.317, 318.629 240.507 C 319.924 242.278, 320.038 242.275, 322.092 240.419 C 323.260 239.364, 325.067 238.641, 326.108 238.813 C 328.414 239.194, 328.464 238.638, 326.407 235.499 C 324.915 233.222, 324.958 232.868, 327.074 229.896 L 329.334 226.723 324.667 227.423 C 319.072 228.262, 318.548 226.879, 322.624 222.034 C 324.068 220.319, 324.990 218.657, 324.674 218.340 C 324.358 218.024, 322.052 217.535, 319.549 217.253 C 314.501 216.684, 313.977 215.571, 316.967 211.769 C 318.049 210.393, 318.649 208.983, 318.301 208.634 C 316.818 207.152, 310.256 208.277, 306.659 210.631 M 195.667 217.667 C 194.377 218.956, 195.023 221.198, 197.190 222.953 L 199.380 224.726 197.190 225.898 C 194.385 227.400, 194.375 229, 197.171 229 C 198.365 229, 200.167 229.746, 201.175 230.659 C 202.638 231.983, 203.492 232.097, 205.404 231.226 C 208.162 229.969, 209 230.482, 209 233.427 C 209 234.578, 210.161 236.772, 211.580 238.302 C 214.321 241.259, 217.380 241.231, 219.575 238.228 C 220.443 237.042, 221.091 236.978, 222.829 237.909 C 224.721 238.921, 225 238.813, 225 237.070 C 225 235.970, 224.048 234.561, 222.885 233.938 C 221.126 232.997, 220.868 232.191, 221.354 229.153 C 221.676 227.144, 222.842 224.762, 223.944 223.860 C 225.949 222.221, 225.949 222.220, 223.901 221.684 C 222.609 221.347, 221.244 221.860, 220.204 223.074 C 218.103 225.529, 216.766 225.504, 214.470 222.967 C 212.965 221.304, 211.875 221.046, 208.494 221.553 C 204.988 222.079, 203.892 221.780, 201.285 219.587 C 198.137 216.938, 196.839 216.494, 195.667 217.667 M 278.462 235.062 C 278.101 235.646, 276.724 236.534, 275.403 237.037 C 273.581 237.730, 273 238.698, 273 241.043 C 273 243.795, 273.247 244.056, 275.250 243.417 C 276.488 243.022, 279.188 242.763, 281.250 242.842 C 284.377 242.962, 285 242.654, 285 240.993 C 285 239.897, 285.450 239, 286 239 C 288.089 239, 286.886 235.907, 284.435 234.975 C 281.117 233.714, 279.278 233.740, 278.462 235.062 M 255 244 C 254.129 245.627, 254.240 246, 255.592 246 C 257.110 246, 257.195 247.726, 256.566 265.750 C 255.998 282.009, 256.144 286.370, 257.392 290.421 C 258.225 293.127, 258.676 295.715, 258.394 296.171 C 257.213 298.082, 255.984 296.690, 254.488 291.750 C 253.153 287.340, 253.009 283.340, 253.586 266.750 C 254.188 249.473, 254.085 247, 252.760 247 C 251.927 247, 250.685 246.325, 250 245.500 C 248.214 243.347, 245.206 243.649, 242.060 246.296 C 239.390 248.543, 239.362 248.678, 240.787 252.546 C 243.781 260.676, 245.772 302.286, 243.242 303.851 C 242.665 304.208, 241.715 307.089, 241.130 310.254 C 239.318 320.060, 235.687 325, 230.294 325 C 226.114 325, 221.079 327.073, 218.659 329.792 L 216.817 331.860 224.659 331.379 C 240.037 330.436, 242.447 329.205, 248.030 319.448 C 251.666 313.092, 253.410 312.670, 260.783 316.362 C 263.377 317.661, 267.975 319.522, 271 320.499 C 277.449 322.581, 283.782 325.602, 286.256 327.777 C 287.222 328.626, 288.311 329.022, 288.677 328.657 C 289.992 327.342, 284.372 322.659, 278 319.760 C 271.070 316.607, 267 313.486, 267 311.326 C 267 309.472, 267.369 309.596, 272.423 313.158 C 276.570 316.082, 277.783 316.384, 288.702 317.215 C 299.162 318.012, 301.343 318.517, 307.934 321.677 C 314.491 324.819, 324.593 327.460, 322.857 325.578 C 321.270 323.857, 307.806 316.099, 304.817 315.182 C 302.993 314.623, 298.125 313.877, 294 313.525 C 289.875 313.173, 284.882 312.462, 282.904 311.945 C 277.304 310.482, 271.586 305.749, 268.913 300.361 C 266.643 295.788, 266.505 294.522, 266.586 279 C 266.698 257.434, 267.239 255.178, 273.020 252.164 C 277.324 249.920, 278.096 249.853, 292.668 250.451 C 301.368 250.808, 308.075 250.688, 308.395 250.170 C 308.702 249.674, 308.137 248.529, 307.141 247.628 C 305.670 246.296, 302.891 245.971, 292.364 245.901 C 281.035 245.825, 278.302 246.149, 270.701 248.467 C 265.917 249.926, 261.553 250.841, 261.002 250.501 C 260.451 250.161, 260 248.820, 260 247.523 C 260 242.139, 257.092 240.091, 255 244 M 201.049 244.474 L 198.641 245.762 201.571 246.363 C 203.182 246.694, 207.650 247.437, 211.500 248.013 C 221.616 249.529, 228.381 251.659, 230.492 253.991 C 231.647 255.267, 233.027 255.809, 234.185 255.441 C 235.589 254.996, 236.383 255.656, 237.478 258.177 C 239.373 262.538, 239.349 261.522, 237.377 253.831 C 236.484 250.349, 235.752 246.488, 235.752 245.250 C 235.750 242.336, 234.462 242.410, 230.330 245.562 L 226.972 248.123 224.368 246.075 C 222.272 244.426, 220.616 244.089, 215.881 244.347 C 212.646 244.524, 209.717 244.950, 209.372 245.294 C 209.028 245.639, 207.556 245.305, 206.102 244.553 C 203.926 243.427, 203.030 243.413, 201.049 244.474 M 215.330 256.250 C 215.636 258.038, 216.639 270.525, 217.558 284 C 218.477 297.475, 219.368 309.009, 219.538 309.632 C 219.881 310.892, 226.572 309.716, 231 307.617 C 233.984 306.203, 234.747 301.674, 234.901 284.460 C 235.009 272.376, 233.307 263.644, 229.913 258.877 C 227.291 255.195, 225.568 255.133, 226.397 258.750 C 227.790 264.836, 229.223 300.177, 228.121 301.279 C 227.523 301.877, 226.749 302.083, 226.402 301.735 C 226.055 301.388, 225.368 292.418, 224.876 281.802 C 223.568 253.582, 223.433 253.046, 217.637 253.015 C 214.956 253.001, 214.809 253.208, 215.330 256.250 M 276.376 254.086 C 274.657 254.584, 272.706 255.649, 272.040 256.452 C 270.061 258.837, 268.832 278.088, 270.035 287.878 C 271.924 303.261, 276.617 308.611, 289.224 309.754 L 295.317 310.307 294.519 303.903 C 294.080 300.381, 293.447 287.600, 293.111 275.500 L 292.500 253.500 288.750 253.190 C 286.688 253.019, 285.005 253.019, 285.011 253.190 C 285.017 253.360, 285.692 255.709, 286.511 258.409 C 288.313 264.351, 288.654 293.478, 286.933 294.541 C 286.347 294.904, 285.559 294.891, 285.183 294.514 C 284.808 294.136, 284.487 286.779, 284.471 278.164 C 284.442 262.408, 282.986 252.902, 280.631 253.090 C 280.009 253.140, 278.094 253.588, 276.376 254.086 M 241.400 289.356 C 241.333 293.513, 241.543 294.691, 242.051 293 C 243.061 289.632, 243.176 284.224, 242.250 283.665 C 241.838 283.416, 241.455 285.977, 241.400 289.356 M 217.703 315.518 C 211.649 317.887, 206.426 319.168, 200.953 319.624 C 196.579 319.989, 193 320.598, 193 320.977 C 193 321.356, 195.480 322.115, 198.512 322.665 C 206.668 324.143, 228.496 320.028, 231.750 316.398 C 232.988 315.018, 234 313.464, 234 312.944 C 234 310.969, 226.161 312.207, 217.703 315.518" stroke="none" fill="#ffffff" fill-rule="evenodd"/>
</svg>