<svg xmlns="http://www.w3.org/2000/svg" width="512" height="512" viewBox="0 0 512 512" version="1.1">
	<path d="M 290.500 30.091 C 282.210 34.646, 278.312 34.963, 273.215 31.500 C 265.021 25.932, 253.660 29.576, 249.534 39.096 C 248.484 41.518, 246.961 44.291, 246.150 45.258 C 244.749 46.928, 244.544 46.930, 242.087 45.285 C 240.310 44.096, 237.465 43.545, 233 43.527 C 227.398 43.504, 226.155 43.843, 224 45.981 C 221.309 48.652, 219.408 51.458, 218.399 54.250 C 218.051 55.212, 217.551 56, 217.287 56 C 217.023 56, 213.860 53.300, 210.259 50 C 201.448 41.927, 198.694 41.806, 193.166 49.250 C 191.021 52.137, 188.039 56.637, 186.538 59.250 C 185.038 61.862, 183.575 64, 183.289 64 C 183.002 64, 179.782 61.366, 176.134 58.148 C 168.449 51.368, 161.820 47, 159.216 47 C 155.376 47, 143.037 63.695, 142.985 68.961 C 142.945 72.918, 141.504 73.291, 135.170 70.982 C 127.834 68.307, 124.670 68.850, 121.998 73.244 C 118.952 78.253, 118.587 83.959, 120.556 95.798 L 122.345 106.555 119.524 111.369 C 116.913 115.825, 116.471 116.140, 113.601 115.595 C 104.859 113.938, 103.453 114, 99 116.238 C 93.677 118.914, 89.061 126.295, 89.023 132.191 C 89.011 134.221, 88.561 136.153, 88.025 136.485 C 87.488 136.816, 84.588 135.718, 81.579 134.044 C 75.365 130.587, 72.003 130.219, 69.758 132.750 C 67.426 135.380, 65 146.270, 65 154.106 C 65 161.939, 64.793 162.138, 54.667 164.062 C 52.009 164.567, 47.847 165.859, 45.417 166.934 C 41.617 168.615, 41 169.305, 41 171.873 C 41 175.077, 46.897 184.757, 51.388 188.924 C 52.824 190.258, 54 191.895, 54 192.562 C 54 193.229, 51.075 195.018, 47.500 196.538 L 41 199.300 41.063 203.400 C 41.121 207.196, 41.612 207.908, 47.683 213 C 58.804 222.329, 58.683 222.185, 56.500 223.433 C 55.474 224.020, 52.916 226.261, 50.817 228.413 C 47.439 231.876, 47 232.893, 47 237.258 C 47 243.272, 49.597 247.368, 54.833 249.617 C 57.951 250.956, 59.474 251.015, 65 250.010 C 71.618 248.806, 81.799 245.713, 85.286 243.847 C 86.347 243.279, 87.576 243.194, 88.018 243.657 C 88.460 244.121, 89.591 252.825, 90.531 263 C 91.907 277.884, 92.104 286.582, 91.542 307.500 C 90.729 337.775, 90.980 339.289, 96.725 338.810 C 101.856 338.383, 103.261 335.520, 102.521 327 C 102.211 323.425, 102.440 316.900, 103.031 312.500 C 104.495 301.597, 104.412 273.822, 102.879 261.275 C 102.094 254.853, 101.974 250.627, 102.560 250.043 C 103.145 249.460, 105.243 249.681, 108.108 250.625 L 112.716 252.144 113.383 260.817 C 113.749 265.587, 113.740 292.786, 113.363 321.258 L 112.676 373.026 115.012 375.513 C 117.681 378.353, 119.666 378.623, 122.628 376.548 C 124.645 375.136, 124.726 373.943, 125.601 332.798 C 126.095 309.534, 126.342 282.512, 126.150 272.750 L 125.799 255 128.777 255 C 130.415 255, 132.218 255.563, 132.784 256.250 C 133.350 256.938, 134.552 262.900, 135.455 269.500 C 136.359 276.100, 137.788 285.837, 138.633 291.137 C 139.561 296.963, 140.294 309.423, 140.485 322.637 C 140.808 344.871, 141.862 359.975, 144.591 381.500 C 145.436 388.160, 145.977 398.611, 145.807 404.985 L 145.500 416.469 138.784 419.168 C 128.683 423.227, 120.714 424.992, 108 425.986 C 92.710 427.181, 82.559 428.687, 76.607 430.646 C 69.690 432.922, 60.660 438.528, 56.508 443.123 C 53.102 446.892, 53.025 447.147, 54.445 449.893 C 55.256 451.462, 56.923 453.008, 58.148 453.328 C 59.374 453.649, 65.804 453.224, 72.438 452.384 C 85.614 450.716, 85.660 450.722, 110 456.985 C 118.655 459.212, 120.715 459.239, 139.500 457.367 L 145.500 456.769 142 460.507 C 140.075 462.562, 136.250 466.039, 133.500 468.232 C 125.605 474.530, 123.895 479.673, 128.314 483.826 C 131.006 486.354, 132.247 486.501, 135.285 484.653 C 136.503 483.911, 140.875 482.569, 145 481.668 C 163.181 477.701, 169.351 477, 186.116 477 C 198.647 477, 204.624 476.584, 208.574 475.436 C 213.869 473.896, 223.460 467.581, 227.624 462.892 C 231.057 459.025, 238.506 447.919, 241.467 442.250 C 242.975 439.363, 244.768 437, 245.450 437 C 246.132 437, 249.347 438.714, 252.595 440.809 C 264.930 448.765, 271.571 451.407, 285.500 453.901 C 297.948 456.130, 301.107 457.011, 307.708 460.097 C 313.981 463.030, 325.618 470.533, 334 477.051 C 335.925 478.547, 339.415 480.770, 341.755 481.989 C 344.095 483.209, 346.259 484.611, 346.564 485.104 C 346.869 485.597, 349.244 486, 351.843 486 C 356.048 486, 356.767 485.665, 358.365 482.959 C 360.288 479.704, 360.109 476.455, 357.461 466.500 C 355.282 458.309, 353.723 454.832, 349.250 448.187 C 346.913 444.715, 345 441.611, 345 441.290 C 345 440.520, 359.027 441.706, 366 443.066 C 377.132 445.236, 383.762 447.462, 395 452.801 C 413.951 461.804, 415.261 462.132, 434.719 462.736 C 449.667 463.201, 452.271 463.053, 454.469 461.613 C 456.286 460.421, 457 459.070, 457 456.818 C 457 452.747, 450.568 446.686, 439.500 440.327 C 420.570 429.452, 412.312 424.520, 409.500 422.409 C 401.726 416.574, 388.421 411.573, 377.721 410.464 C 369.663 409.628, 369 408.823, 369 399.872 C 369 396.429, 368.350 388.412, 367.555 382.056 C 364.472 357.388, 363.639 336.553, 364.855 314.449 C 365.488 302.927, 366.005 286.385, 366.003 277.689 L 366 261.879 373.250 262.576 C 377.238 262.959, 382.525 263.554, 385 263.897 L 389.500 264.521 390.129 289.011 C 390.476 302.480, 391.108 328.266, 391.536 346.314 C 392.249 376.456, 392.469 379.326, 394.229 381.564 C 396.586 384.561, 400.063 384.695, 402.595 381.888 C 404.792 379.451, 404.817 372.917, 402.892 304.178 C 402.302 283.102, 402.070 264.877, 402.376 263.678 C 402.850 261.823, 409.469 258, 412.207 258 C 414.141 258, 425.689 250.256, 430.770 245.552 L 436.569 240.183 450.850 238.160 C 458.705 237.047, 465.777 235.600, 466.566 234.946 C 470.239 231.897, 467.348 224.433, 456.535 209.050 C 454.591 206.284, 453 203.826, 453 203.589 C 453 203.351, 454.995 200.181, 457.433 196.545 C 463.399 187.649, 464.677 183.682, 462.600 180.512 C 460.866 177.866, 455.585 176.014, 449.750 176.006 C 447.688 176.003, 446 175.706, 446 175.347 C 446 174.987, 448.250 172.314, 451 169.406 C 453.750 166.499, 456 163.396, 456 162.512 C 456 158.649, 446.511 153.831, 434.250 151.468 C 429.476 150.547, 429.987 149.109, 436.613 144.817 C 441.198 141.847, 442.330 139.311, 440.622 135.834 C 439.197 132.934, 430.914 128.477, 425.250 127.563 C 419.354 126.612, 419.688 124.282, 426.268 120.464 C 430.895 117.779, 431.535 117.006, 431.806 113.782 C 432.087 110.436, 431.679 109.792, 426.851 105.976 C 422.075 102.202, 419.055 100.549, 410.722 97.150 C 406.590 95.465, 406.460 93.648, 409.988 86.869 C 413.182 80.732, 413.184 80.723, 411.275 78.167 C 408.619 74.608, 404.793 73.853, 395.500 75.050 C 391.100 75.616, 385.363 76.350, 382.750 76.679 L 378 77.279 378 72.849 C 378 67.160, 375.377 57.074, 373.300 54.779 C 370.301 51.466, 362.359 52.974, 348.758 59.441 C 343.348 62.013, 342.009 61.096, 341.956 54.781 C 341.882 45.914, 338.028 38, 333.783 38 C 331.171 38, 322.410 40.733, 317.211 43.170 C 311.874 45.671, 310.990 45.043, 308.594 37.042 C 306.279 29.313, 303.695 25.961, 300.177 26.123 C 298.705 26.191, 294.350 27.976, 290.500 30.091 M 262.136 43.336 C 260.215 45.651, 258 53.092, 258 57.230 C 258 60.853, 258.672 61.877, 265.500 68.661 C 273.327 76.437, 274.894 80.183, 271.500 83 C 269.704 84.491, 269.502 91.102, 271.200 92.800 C 271.914 93.514, 275.356 94, 279.700 94 C 285.802 94, 287.348 94.348, 289.118 96.118 C 291.021 98.021, 291.167 98.933, 290.557 105.119 C 289.881 111.982, 289.887 112.007, 292.669 113.064 C 296.018 114.338, 296.964 115.656, 296.985 119.076 C 297 121.605, 300.614 126, 302.680 126 C 303.257 126, 304.913 125.070, 306.358 123.933 C 310.635 120.569, 313.955 121.644, 316.878 127.339 C 319.163 131.790, 319.595 132.131, 322.280 131.594 C 323.886 131.273, 326.539 129.883, 328.176 128.505 C 331.622 125.605, 332.767 125.448, 335.665 127.478 C 337.737 128.930, 342 136.070, 342 138.090 C 342 139.693, 349.273 148, 350.677 148 C 351.366 148, 352.469 146.988, 353.128 145.750 C 356.460 139.496, 365.269 126.927, 366.952 126.026 C 369.871 124.464, 370.681 124.717, 374.868 128.500 C 379.192 132.406, 380.551 132.703, 383.777 130.443 C 385.423 129.290, 386 127.882, 386 125.015 C 386 120.768, 387.328 118.935, 391.724 117.114 C 397.385 114.770, 399.999 106.710, 395.636 105.052 C 391.707 103.558, 390.874 98.630, 393.493 92.362 C 394.315 90.396, 394.783 88.458, 394.534 88.055 C 393.826 86.910, 382.900 89.481, 373.952 92.898 C 364.480 96.515, 363.016 96.644, 359.913 94.130 C 357.757 92.384, 357.676 91.942, 358.703 87.455 C 360.293 80.507, 359.325 78.926, 355.987 83.016 C 352.776 86.951, 348.086 87.369, 344.539 84.036 C 342.634 82.247, 341.533 82.036, 336.907 82.572 C 331.953 83.146, 331.294 82.978, 329.044 80.565 C 326.837 78.199, 326.707 77.614, 327.767 74.806 C 328.903 71.798, 328.777 71.527, 324.438 67.628 C 319.635 63.312, 312.529 60.766, 307.854 61.687 C 304.045 62.438, 301.412 59.306, 299.999 52.342 C 298.518 45.047, 297.341 42, 296.002 42 C 295.429 42, 293.066 43.196, 290.751 44.657 C 282.749 49.709, 276.348 49.625, 269.317 44.376 C 265.710 41.684, 263.743 41.399, 262.136 43.336 M 230.068 59.904 C 228.477 62.139, 228 64.339, 228 69.444 C 228 77.945, 226.115 81.666, 217.596 89.982 C 212.742 94.721, 211 97.122, 211 99.076 C 211 102.306, 207.506 107, 205.102 107 C 204.138 107, 202.292 105.875, 201 104.500 C 199.708 103.125, 198.219 102, 197.690 102 C 197.162 102, 195.687 103.125, 194.412 104.500 C 191.145 108.026, 187.825 107.703, 184.134 103.500 C 181.873 100.925, 180.249 100, 177.985 100 C 176.053 100, 173.997 99.088, 172.455 97.545 C 169.268 94.359, 169.121 87.241, 172.103 80.500 C 174.756 74.504, 173.824 72.061, 167.764 69.128 C 157.425 64.123, 153 67.809, 153 81.427 C 153 88.312, 152.791 89.091, 150.549 90.560 C 147.536 92.534, 145.456 91.934, 139.843 87.472 C 133.752 82.630, 132 82.843, 132 88.424 C 132 94.127, 133.968 103.055, 135.671 105.079 C 137.414 107.149, 137.352 109.987, 135.482 113.735 C 133.112 118.487, 135.989 123.693, 142 125.526 C 146.911 127.024, 149.002 129.075, 148.968 132.365 C 148.951 134.089, 148.276 136.374, 147.468 137.441 C 146.661 138.509, 146 140.871, 146 142.691 C 146 145.261, 146.419 146, 147.878 146 C 148.910 146, 150.315 145.325, 151 144.500 C 152.983 142.111, 157.530 142.634, 159.385 145.465 C 161.207 148.245, 161.498 151.574, 160 152.500 C 157.902 153.797, 159.145 155.893, 162.711 157.070 C 164.752 157.743, 168.529 159.353, 171.106 160.647 C 178.613 164.418, 181.060 163.567, 183.991 156.166 C 185.654 151.970, 188.146 151.022, 195.706 151.707 C 201.044 152.191, 201.876 152.014, 203.207 150.114 C 204.239 148.642, 204.558 146.453, 204.233 143.076 C 203.782 138.384, 203.899 138.104, 206.959 136.521 C 209.617 135.147, 210.995 135.048, 215.127 135.934 C 217.861 136.520, 221.026 137, 222.159 137 C 224.335 137, 224.344 136.651, 222.432 127.236 C 221.603 123.155, 223.257 118.845, 227.858 113.099 L 231.382 108.698 227.441 105.364 C 225.273 103.530, 223.174 102.023, 222.776 102.015 C 222.377 102.007, 221.322 100.590, 220.431 98.866 C 218.905 95.915, 218.924 95.579, 220.755 93.116 C 223.904 88.881, 226.355 89.273, 234.344 95.285 C 243.760 102.372, 248 106.680, 248 109.159 C 248 110.262, 245.745 113.431, 242.989 116.202 C 237.040 122.183, 236.410 124.082, 238.455 129.876 C 239.305 132.282, 240 136.054, 240 138.258 C 240 141.545, 239.368 142.859, 236.479 145.585 C 233.597 148.302, 231.872 149.028, 226.979 149.582 C 221.062 150.251, 221 150.291, 221 153.455 C 221 159.474, 214.855 163.058, 203.020 163.942 C 195.764 164.483, 195.512 164.590, 194.624 167.500 C 192.714 173.765, 191.242 176.042, 187.220 178.956 C 182.716 182.218, 179.321 187.462, 181.028 188.517 C 181.589 188.864, 183.378 188.856, 185.002 188.500 C 189.323 187.550, 191.601 188.639, 193.450 192.537 C 195.348 196.536, 196.606 196.752, 202 194 C 208.329 190.771, 212.641 191.707, 216.989 197.250 C 219.443 200.380, 224.183 200.933, 227.441 198.468 C 231.343 195.517, 240 197.561, 240 201.435 C 240 201.862, 241.350 203.917, 243 206 C 244.650 208.083, 246 210.104, 246 210.490 C 246 210.875, 246.901 212.457, 248.003 214.004 L 250.005 216.816 254.134 214.821 C 258.592 212.667, 262.302 212.864, 267.402 215.525 C 271.466 217.646, 273.336 216.707, 277.480 210.464 C 279.467 207.470, 282.085 204.467, 283.297 203.791 C 284.549 203.092, 289.424 202.524, 294.588 202.476 C 303.646 202.390, 303.689 202.378, 307.279 198.787 C 311.917 194.150, 315.363 193.437, 322.907 195.554 C 329.463 197.393, 331.995 197.039, 332.009 194.281 C 332.023 191.701, 337.288 182.984, 340.900 179.563 C 343.980 176.645, 344.762 174.589, 343.167 173.603 C 342.709 173.320, 338.386 173.496, 333.560 173.994 C 325.821 174.792, 323.944 175.405, 317.643 179.191 C 311.787 182.710, 309.640 183.472, 305.725 183.418 C 299.905 183.339, 296.708 181.202, 292.275 174.428 C 285.851 164.614, 286.015 164.769, 282.631 165.308 C 280.909 165.582, 277.591 166.354, 275.257 167.023 C 267.252 169.319, 263.820 164.153, 267.500 155.346 C 268.325 153.371, 269 150.691, 269 149.390 C 269 147.394, 268.360 146.921, 264.907 146.369 C 260.321 145.636, 255 141.727, 255 139.091 C 255 138.139, 256.397 135.817, 258.104 133.930 C 264.986 126.324, 266.207 124.256, 265.071 122.132 C 264.483 121.034, 263.113 119.853, 262.027 119.509 C 257.145 117.959, 254.177 109.758, 257.500 107 C 259.961 104.957, 259.262 103.340, 254 98.903 C 250.600 96.036, 249 93.931, 249 92.324 C 249 89.802, 252.657 83.359, 255.364 81.113 C 256.264 80.366, 257 79.278, 257 78.696 C 257 77.434, 241.583 61.255, 238 58.757 C 234.452 56.283, 232.440 56.574, 230.068 59.904 M 393 144.044 C 381.843 150.965, 378.769 151.456, 374.500 147 C 369.749 142.041, 367.090 144.035, 370.500 150 C 371.286 151.375, 371.945 153.703, 371.965 155.173 C 372.004 158.159, 376.076 163.572, 378.974 164.492 C 382.660 165.662, 382.470 170.380, 378.410 178.484 C 374.690 185.911, 374.676 185.984, 376.581 188.114 C 377.636 189.294, 380.381 191.071, 382.680 192.064 C 387.947 194.338, 389.533 197.031, 388.073 201.220 C 386.428 205.940, 386.657 206.310, 390.805 205.647 C 396.426 204.748, 399 206.901, 399 212.498 C 399 216.788, 400.240 219.038, 401.490 217.016 C 402.213 215.846, 408 215.618, 408 216.759 C 408 218.363, 412.201 220.199, 413.318 219.082 C 415.457 216.943, 420.070 217.875, 422.813 221 C 426.484 225.184, 429.689 224.989, 431.579 220.466 C 433.501 215.866, 436.492 214.490, 441.539 215.883 C 443.656 216.468, 445.561 216.772, 445.774 216.560 C 446.207 216.126, 443.201 211.206, 441.264 209.180 C 437.786 205.541, 438.668 200.732, 444.063 193.920 C 445.679 191.881, 447 189.939, 447 189.606 C 447 188.638, 441.379 188.905, 438.471 190.011 C 433.347 191.959, 427.863 191.549, 425.853 189.067 C 422.849 185.357, 425.445 178.861, 433.387 170.212 C 435.750 167.639, 436.960 165.563, 436.412 165.020 C 435.292 163.910, 423.983 162.018, 418.405 162.008 C 414.057 162, 411 159.776, 411 156.622 C 411 154.301, 413.589 149.434, 417.675 144.074 C 421.872 138.569, 421.203 138.010, 410.500 138.091 C 402.519 138.151, 402.477 138.165, 393 144.044 M 96.064 162.959 C 91.597 164.061, 91.511 173, 95.968 173 C 98.768 173, 102 176.483, 102 179.500 C 102 180.875, 100.987 182.921, 99.750 184.046 C 94.559 188.768, 94.083 189.325, 94.569 190.111 C 94.848 190.564, 96.394 190.671, 98.002 190.350 C 102.488 189.452, 105.808 190.729, 107.500 194 C 109.587 198.036, 113.006 198.720, 118.021 196.106 C 126.220 191.833, 130.236 194.530, 131.434 205.115 C 132.029 210.381, 132.740 212.019, 136.223 216.150 C 140.159 220.817, 140.511 221, 145.575 221 C 151.640 221, 154 220.308, 154 218.528 C 154 216.237, 158.108 212, 160.323 212.007 C 161.520 212.010, 163.822 212.885, 165.438 213.950 C 168.818 216.178, 170 215.827, 170 212.596 C 170 210.266, 167.227 207, 165.248 207 C 163.116 207, 158 201.801, 158.026 199.661 C 158.103 193.373, 164.706 176, 167.020 176 C 167.559 176, 168 175.550, 168 175 C 168 174.450, 166.704 174, 165.120 174 C 162.921 174, 161.371 175.062, 158.554 178.500 C 153.870 184.215, 149.930 184.638, 145.437 179.907 C 143.822 178.206, 140.795 175.455, 138.712 173.793 L 134.924 170.772 128.896 173.386 C 125.581 174.824, 121.660 175.996, 120.184 175.991 C 116.876 175.979, 108.999 171.533, 103 166.290 C 99.507 163.238, 97.955 162.492, 96.064 162.959 M 314.446 211.500 C 312.218 214.220, 309.917 216.013, 308.630 216.032 C 304.493 216.094, 303 218.302, 303 224.360 C 303 227.462, 303.395 230, 303.878 230 C 304.361 230, 306.371 229.325, 308.346 228.500 C 310.695 227.518, 315.270 227, 321.585 227 C 331.043 227, 331.222 226.956, 330.656 224.793 C 330.272 223.326, 330.904 221.503, 332.539 219.359 C 335.221 215.844, 335.715 212.568, 333.750 211.332 C 331.530 209.935, 322.565 207.066, 320.317 207.033 C 318.919 207.012, 316.807 208.619, 314.446 211.500 M 255.452 230.646 C 252.494 233.838, 252.297 236, 254.965 236 C 257.734 236, 258.835 238.637, 259.849 247.693 C 260.757 255.812, 260.243 267.168, 257.550 298.500 C 255.613 321.029, 255.457 331.325, 256.897 341.500 C 258.216 350.816, 260.808 360.657, 262.685 363.473 C 263.408 364.557, 264 367.318, 264 369.607 C 264 372.964, 263.507 374.093, 261.454 375.438 C 255.550 379.307, 252.252 374.579, 246.948 354.643 C 245.337 348.590, 245.056 344.068, 245.108 325 C 245.141 312.625, 245.605 299.800, 246.139 296.500 C 247.312 289.247, 248.451 248.933, 247.581 245.466 C 247.123 243.641, 246.291 243, 244.378 243 C 242.723 243, 239.993 241.381, 236.789 238.500 C 229.700 232.126, 227.663 232.353, 219.380 240.435 L 212.785 246.869 214.369 251.185 C 215.241 253.558, 217.314 260.171, 218.977 265.880 C 221.843 275.721, 222 277.192, 222 294.200 C 222 311.250, 223.242 322.932, 226.124 333 C 227.719 338.571, 228.369 361.789, 227.103 368 C 226.487 371.025, 225.311 377.972, 224.490 383.437 C 223.356 390.984, 222.460 393.946, 220.765 395.750 C 218.307 398.367, 216.164 406.824, 216.064 414.307 C 215.989 419.940, 210.608 433.739, 205.464 441.488 C 200.640 448.756, 196.647 450.664, 183.463 451.999 C 175.291 452.827, 171.135 453.776, 167.139 455.726 C 161.827 458.319, 154.226 464.560, 155.197 465.530 C 155.475 465.808, 160.831 465.581, 167.101 465.026 C 173.370 464.471, 182.401 464.013, 187.169 464.009 C 202.037 463.994, 211.577 460.421, 219.649 451.845 C 223.245 448.025, 230.582 436.749, 234.004 429.783 C 237.893 421.868, 240.773 419.821, 248.832 419.244 C 253.803 418.888, 256.600 419.165, 258.643 420.213 C 260.214 421.020, 265.325 423.685, 270 426.137 C 279.263 430.994, 283.596 432.700, 295 435.981 C 307.494 439.576, 318.036 444.023, 327.400 449.651 C 332.295 452.593, 336.683 455, 337.150 455 C 338.887 455, 337.874 453.463, 333.199 449.004 C 328.172 444.209, 321.527 440.578, 306.500 434.417 C 295.948 430.090, 287.453 424.593, 283.687 419.657 C 280.614 415.628, 280.345 413.380, 282.557 410.223 C 285.102 406.589, 288.655 407.384, 294.477 412.890 C 300.045 418.156, 304.630 420.808, 314.933 424.723 C 320.907 426.992, 323.578 427.295, 344.500 428.070 C 374.780 429.192, 382.633 431.134, 400.383 441.892 C 408.252 446.661, 414.546 448.994, 421.462 449.708 C 428.378 450.422, 428.705 448.991, 422.351 445.820 C 419.794 444.544, 414.281 441.166, 410.101 438.314 C 400.643 431.861, 390.192 426.586, 383 424.637 C 376.781 422.952, 363.498 421.356, 348 420.431 C 322.560 418.913, 303.478 409.513, 292.591 393.136 C 286.065 383.321, 282.554 373.146, 280.465 358 C 278.056 340.534, 278.659 314.199, 282.113 286 C 282.686 281.325, 283.501 274.326, 283.925 270.447 C 284.755 262.849, 286.900 258.483, 290.339 257.393 C 291.528 257.016, 294.186 255.644, 296.248 254.343 C 307.480 247.255, 329.698 244.160, 349 246.995 C 359.201 248.493, 390.261 249.305, 391.981 248.118 C 393.261 247.235, 393.184 246.723, 391.413 244.352 C 390.287 242.843, 388.144 241.281, 386.653 240.882 C 385.161 240.484, 368.542 240.013, 349.721 239.836 L 315.500 239.515 301.600 244.258 C 293.955 246.866, 286.697 249, 285.472 249 C 284.247 249, 281.629 249.675, 279.654 250.500 C 277.680 251.325, 274.095 252, 271.687 252 C 265.750 252, 263.974 249.853, 263.268 241.824 C 262.962 238.346, 262.102 234.612, 261.356 233.527 C 260.610 232.443, 260 230.755, 260 229.777 C 260 227.251, 258.297 227.576, 255.452 230.646 M 192.529 233.767 C 190.894 234.622, 187.436 237.499, 184.843 240.161 C 178.966 246.195, 176.167 246.440, 170.500 241.415 C 161.972 233.852, 157.729 232.894, 146.750 236.049 C 142.867 237.166, 141.146 237.186, 137.322 236.164 C 133.064 235.025, 132.469 235.087, 130.700 236.855 C 128.051 239.504, 129.176 240.777, 134.773 241.467 C 137.373 241.788, 143.325 242.741, 148 243.587 C 171.969 247.920, 179.980 250.801, 188 257.973 C 192.815 262.279, 193.514 262.595, 194.542 260.932 C 194.905 260.345, 196.707 259.994, 198.547 260.152 C 200.387 260.311, 202.177 260.156, 202.525 259.808 C 202.873 259.460, 202.412 256.549, 201.500 253.338 C 197.495 239.233, 197 237.178, 197 234.662 C 197 231.657, 196.682 231.594, 192.529 233.767 M 110.750 233.689 C 105.207 235.138, 113.337 239.485, 120.322 238.808 L 123.500 238.500 118.822 235.750 C 116.249 234.238, 113.774 233.052, 113.322 233.116 C 112.870 233.180, 111.713 233.438, 110.750 233.689 M 147.273 264.097 C 148.002 272.973, 150.934 296.118, 151.605 298.287 C 151.909 299.269, 152.559 310.519, 153.048 323.287 C 153.538 336.054, 154.633 354.150, 155.483 363.500 C 156.332 372.850, 157.457 386.973, 157.982 394.885 C 158.508 402.797, 159.064 409.394, 159.219 409.545 C 159.373 409.696, 162.650 408.798, 166.500 407.548 C 170.350 406.299, 175.750 404.973, 178.500 404.603 C 185.905 403.605, 190.567 401.261, 192.341 397.643 C 194.511 393.219, 197.476 344.617, 196.696 326.266 C 195.610 300.713, 190.761 283.319, 181.500 271.748 C 176.203 265.130, 176.149 265.626, 179.506 290 C 181.473 304.277, 182.867 334.376, 182.943 364.179 C 183.004 388.607, 182.716 390.020, 177.679 389.985 C 171.218 389.939, 170.934 388.290, 170.395 347.699 C 169.928 312.590, 169.183 301.849, 165.455 276.500 C 164.647 271, 163.876 265.379, 163.742 264.009 C 163.437 260.876, 159.784 259.040, 152.327 258.270 L 146.748 257.694 147.273 264.097 M 336.308 259.639 C 335.980 260.495, 337.238 265.764, 339.105 271.348 L 342.500 281.500 342.163 324.500 C 341.828 367.185, 341.810 367.513, 339.663 369.228 C 336.770 371.539, 335.620 371.438, 332.306 368.582 L 329.500 366.165 329.500 324.832 L 329.500 283.500 326.108 272 C 324.243 265.675, 322.367 260.109, 321.939 259.631 C 321.028 258.613, 312.282 260.398, 306.500 262.783 C 298.848 265.940, 297.268 267.697, 296.079 274.375 C 292.381 295.138, 292.260 347.795, 295.871 364.500 C 300.185 384.458, 306.382 394.989, 316.670 399.846 C 319.327 401.100, 322.221 402.510, 323.102 402.979 C 329.408 406.338, 354.275 409.578, 356.176 407.288 C 357.312 405.919, 356.580 388.274, 354.975 378.371 C 352.947 365.851, 351.870 328.703, 352.675 299 C 353.129 282.225, 353.276 266.732, 353.001 264.570 C 352.445 260.207, 351.728 259.817, 342.203 258.703 C 337.940 258.204, 336.789 258.387, 336.308 259.639 M 171.500 419.422 C 164.917 421.267, 154.272 425.367, 141.500 430.979 C 133.201 434.624, 115.295 438, 104.254 438 C 99.804 438, 95.374 438.303, 94.410 438.673 C 91.815 439.669, 102.002 442.893, 110 443.607 C 116.266 444.166, 119.778 443.750, 136 440.524 C 143.914 438.951, 156.165 436.790, 167 435.056 C 177.848 433.320, 184.974 430.848, 187.820 427.832 C 190.546 424.945, 193.283 418.616, 192.252 417.585 C 190.934 416.268, 178.982 417.326, 171.500 419.422" stroke="none" fill="#000000" fill-rule="evenodd"/>
</svg>