<svg width="46" height="55" viewBox="0 0 46 55" preserveAspectRatio="xMidYMid meet" fill="none" xmlns="http://www.w3.org/2000/svg">
  <!-- Small version (just the crown icon) -->
  <g id="small">
    <path d="M22.5522 4V2" stroke="#a480ff" stroke-width="2" stroke-linecap="round" stroke-linejoin="round" fill="none"/>
    <path d="M15.5522 10V14C15.5524 15.5569 16.0713 17.0693 17.0269 18.2984C17.9825 19.5275 19.3204 20.4031 20.8292 20.787C21.2412 20.891 21.6312 21.079 21.9312 21.379L22.5522 22L23.1732 21.379C23.4732 21.079 23.8632 20.891 24.2752 20.787C25.7841 20.4033 27.1221 19.5277 28.0778 18.2986C29.0334 17.0694 29.5523 15.5569 29.5522 14V10" stroke="#a480ff" stroke-width="2" stroke-linecap="round" stroke-linejoin="round" fill="none"/>
    <path d="M22.5522 4C18.5522 4 15.0522 6 14.5522 8C14.3092 8.97 13.6332 9.952 12.5522 11C13.8622 10.918 14.5242 10.71 15.5522 10C16.0922 10.92 16.5342 11.356 17.5522 12C19.0042 11.353 19.5062 10.902 20.0522 10C20.6472 10.995 21.2032 11.427 22.5522 12C23.8622 11.379 24.4142 10.942 25.0522 10C25.6812 10.977 26.2142 11.423 27.5522 12C28.7612 11.452 29.2322 11.033 29.5522 10C30.5842 10.916 31.2352 11.157 32.5522 11C31.2552 9.964 30.7942 8.97 30.5522 8C30.0522 6 26.5522 4 22.5522 4Z" stroke="#a480ff" stroke-width="2" stroke-linecap="round" stroke-linejoin="round" fill="none"/>
  </g>
  
  <!-- Large version (full logo with text) -->
  <g id="large">
    <path d="M22.5522 4V2" stroke="#a480ff" stroke-width="2" stroke-linecap="round" stroke-linejoin="round" fill="none"/>
    <path d="M15.5522 10V14C15.5524 15.5569 16.0713 17.0693 17.0269 18.2984C17.9825 19.5275 19.3204 20.4031 20.8292 20.787C21.2412 20.891 21.6312 21.079 21.9312 21.379L22.5522 22L23.1732 21.379C23.4732 21.079 23.8632 20.891 24.2752 20.787C25.7841 20.4033 27.1221 19.5277 28.0778 18.2986C29.0334 17.0694 29.5523 15.5569 29.5522 14V10" stroke="#a480ff" stroke-width="2" stroke-linecap="round" stroke-linejoin="round" fill="none"/>
    <path d="M22.5522 4C18.5522 4 15.0522 6 14.5522 8C14.3092 8.97 13.6332 9.952 12.5522 11C13.8622 10.918 14.5242 10.71 15.5522 10C16.0922 10.92 16.5342 11.356 17.5522 12C19.0042 11.353 19.5062 10.902 20.0522 10C20.6472 10.995 21.2032 11.427 22.5522 12C23.8622 11.379 24.4142 10.942 25.0522 10C25.6812 10.977 26.2142 11.423 27.5522 12C28.7612 11.452 29.2322 11.033 29.5522 10C30.5842 10.916 31.2352 11.157 32.5522 11C31.2552 9.964 30.7942 8.97 30.5522 8C30.0522 6 26.5522 4 22.5522 4Z" stroke="#a480ff" stroke-width="2" stroke-linecap="round" stroke-linejoin="round" fill="none"/>
    <path d="M6.58404 34.2168C5.76764 34.2168 5.06256 34.0371 4.46881 33.6777C3.87506 33.3184 3.41803 32.8066 3.09772 32.1426C2.7774 31.4785 2.61725 30.6895 2.61725 29.7754V29.7637C2.61725 28.8496 2.7774 28.0605 3.09772 27.3965C3.41803 26.7324 3.87311 26.2227 4.46295 25.8672C5.0567 25.5078 5.76373 25.3281 6.58404 25.3281C7.25201 25.3281 7.85162 25.459 8.38287 25.7207C8.91803 25.9824 9.34967 26.3438 9.67779 26.8047C10.0059 27.2656 10.1973 27.793 10.252 28.3867V28.4629H8.53522L8.52936 28.4219C8.47076 28.1055 8.35162 27.8281 8.17193 27.5898C7.99225 27.3477 7.76568 27.1602 7.49225 27.0273C7.22272 26.8945 6.91998 26.8281 6.58404 26.8281C6.14264 26.8281 5.75982 26.9473 5.43561 27.1855C5.11139 27.4199 4.86139 27.7578 4.68561 28.1992C4.51373 28.6367 4.42779 29.1582 4.42779 29.7637V29.7754C4.42779 30.377 4.51373 30.8984 4.68561 31.3398C4.86139 31.7812 5.11139 32.1211 5.43561 32.3594C5.75982 32.5977 6.14459 32.7168 6.5899 32.7168C6.92975 32.7168 7.23248 32.6562 7.49811 32.5352C7.76764 32.4102 7.99029 32.2363 8.16607 32.0137C8.34576 31.7871 8.4649 31.5234 8.5235 31.2227L8.53522 31.1699H10.2579V31.2402C10.1954 31.8301 10.002 32.3477 9.67779 32.793C9.35357 33.2383 8.92779 33.5879 8.40045 33.8418C7.87311 34.0918 7.26764 34.2168 6.58404 34.2168ZM10.2937 34L13.2293 25.5449H14.7351V27.2324H14.2195L12.1512 34H10.2937ZM11.864 31.9492L12.2976 30.625H16.2058L16.6394 31.9492H11.864ZM16.3875 34L14.325 27.2324V25.5449H15.3094L18.2508 34H16.3875ZM21.9897 34.2168C21.3179 34.2168 20.7339 34.1152 20.2378 33.9121C19.7417 33.709 19.3511 33.4238 19.0659 33.0566C18.7847 32.6855 18.6265 32.25 18.5913 31.75L18.5854 31.6562H20.2905L20.2964 31.7148C20.3198 31.9258 20.4058 32.1113 20.5542 32.2715C20.7065 32.4277 20.9097 32.5508 21.1636 32.6406C21.4175 32.7305 21.7085 32.7754 22.0366 32.7754C22.353 32.7754 22.6304 32.7285 22.8687 32.6348C23.1069 32.541 23.2925 32.4121 23.4253 32.248C23.562 32.0801 23.6304 31.8887 23.6304 31.6738V31.668C23.6304 31.3906 23.5171 31.168 23.2905 31C23.0679 30.832 22.6929 30.6934 22.1655 30.584L21.2749 30.4023C20.396 30.2227 19.7573 29.9277 19.3589 29.5176C18.9604 29.1074 18.7612 28.582 18.7612 27.9414V27.9355C18.7612 27.4121 18.8999 26.9551 19.1772 26.5645C19.4546 26.1738 19.8354 25.8711 20.3198 25.6562C20.8042 25.4375 21.3589 25.3281 21.9839 25.3281C22.6401 25.3281 23.2026 25.4355 23.6714 25.6504C24.144 25.8613 24.5132 26.1523 24.7788 26.5234C25.0444 26.8906 25.1948 27.3105 25.23 27.7832L25.2358 27.8594H23.5718L23.5601 27.7891C23.5249 27.5859 23.439 27.4082 23.3022 27.2559C23.1694 27.1035 22.9897 26.9844 22.7632 26.8984C22.5405 26.8086 22.2808 26.7637 21.9839 26.7637C21.6948 26.7637 21.4409 26.8066 21.2222 26.8926C21.0034 26.9785 20.8335 27.0996 20.7124 27.2559C20.5913 27.4082 20.5308 27.5898 20.5308 27.8008V27.8066C20.5308 28.0801 20.6401 28.3047 20.8589 28.4805C21.0815 28.6523 21.4409 28.7891 21.937 28.8906L22.8335 29.0723C23.4312 29.1934 23.9175 29.3574 24.2925 29.5645C24.6714 29.7715 24.9507 30.0312 25.1304 30.3438C25.3101 30.6562 25.3999 31.0332 25.3999 31.4746V31.4805C25.3999 32.0391 25.2612 32.5234 24.9839 32.9336C24.7104 33.3398 24.3179 33.6562 23.8062 33.8828C23.2983 34.1055 22.6929 34.2168 21.9897 34.2168ZM26.3557 34V25.5449H28.1252V28.9785H31.9338V25.5449H33.7033V34H31.9338V30.4375H28.1252V34H26.3557ZM38.5732 34.2168C37.8505 34.2168 37.2236 34.0859 36.6923 33.8242C36.165 33.5625 35.7548 33.1973 35.4619 32.7285C35.1728 32.2598 35.0283 31.7109 35.0283 31.082V25.5449H36.7978V30.9238C36.7978 31.2871 36.8661 31.6035 37.0029 31.873C37.1435 32.1387 37.3447 32.3457 37.6064 32.4941C37.872 32.6426 38.1943 32.7168 38.5732 32.7168C38.9521 32.7168 39.2724 32.6426 39.5341 32.4941C39.7997 32.3457 40.0009 32.1387 40.1376 31.873C40.2744 31.6035 40.3427 31.2871 40.3427 30.9238V25.5449H42.1122V31.082C42.1122 31.707 41.9677 32.2559 41.6786 32.7285C41.3935 33.1973 40.9853 33.5625 40.454 33.8242C39.9267 34.0859 39.2997 34.2168 38.5732 34.2168ZM2.306 44V35.5449H5.35873C6.19857 35.5449 6.91537 35.7109 7.50912 36.043C8.10287 36.375 8.556 36.8535 8.8685 37.4785C9.1849 38.1035 9.34311 38.8594 9.34311 39.7461V39.7578C9.34311 40.6523 9.1849 41.416 8.8685 42.0488C8.556 42.6816 8.10287 43.166 7.50912 43.502C6.91928 43.834 6.20248 44 5.35873 44H2.306ZM3.6185 42.8633H5.21225C5.80209 42.8633 6.30404 42.7422 6.71811 42.5C7.13607 42.2578 7.45248 41.9062 7.66732 41.4453C7.88607 40.9844 7.99545 40.4277 7.99545 39.7754V39.7637C7.99545 39.1152 7.88412 38.5605 7.66146 38.0996C7.44271 37.6387 7.12631 37.2871 6.71225 37.0449C6.29818 36.8027 5.79818 36.6816 5.21225 36.6816H3.6185V42.8633ZM10.3985 44V35.5449H15.7657V36.6816H11.711V39.1484H15.5489V40.2383H11.711V42.8633H15.7657V44H10.3985ZM19.2996 44L16.2937 35.5449H17.7234L19.9793 42.4121H20.0789L22.3347 35.5449H23.7703L20.7586 44H19.2996ZM28.2717 41.3105L28.2072 39.541H28.4826L31.9748 35.5449H33.5334L30.1467 39.3477L29.4494 39.9746L28.2717 41.3105ZM27.0705 44V35.5449H28.383V44H27.0705ZM32.1682 44L29.2326 39.9629L30.1584 39.0723L33.8088 44H32.1682ZM34.4833 44V35.5449H35.7958V44H34.4833ZM39.3415 44V36.6816H36.6813V35.5449H43.3141V36.6816H40.654V44H39.3415Z" fill="#a480ff"/>
    <path d="M15.5 48.5C15.5 48.0858 15.8358 47.75 16.25 47.75H29.75C30.1642 47.75 30.5 48.0858 30.5 48.5V48.5C30.5 48.9142 30.1642 49.25 29.75 49.25H16.25C15.8358 49.25 15.5 48.9142 15.5 48.5V48.5Z" fill="#a480ff"/>
  </g>
</svg>
