<svg xmlns="http://www.w3.org/2000/svg" width="793" height="380" fill="none"><path fill="#000" d="M644.3 4.2A91.6 91.6 0 0 1 689 1.6c43.3 6.2 79.3 38.2 93.9 87.9 7.1 24.3 9.5 84.8 9.5 195.2 0 69-.4 72.8-3.5 79.8-4.4 10-12.8 15-26 15-11.5 0-25-3.6-25-16v-94.1c0-56.2-1-125.6-2.1-134.2-4.9-36-18.6-59.5-42.5-72.6-2.9-1.6-8.6-4.4-16.6-6.3-24.4-2.2-33 1.6-50.7 15.8-29.5 25.9-53.7 81.9-89 175.2a6022.7 6022.7 0 0 1-38 98.2 99.4 99.4 0 0 1-5.3 11.6 29.7 29.7 0 0 1-5.9 8.3 24.7 24.7 0 0 1-32.9 3.2c-6.8-5-10.5-12.8-35.5-75.9l-28-70.2 6-9.3c3.3-5 11.8-15 19-22.2 7-7.1 13.7-12.1 14.6-11 1.8 2 19.7 45.5 39 94.4l8.3-22.2c23.9-59.2 48.8-124.6 82.2-179.5 23.5-38.7 52-57.5 83.8-68.5ZM139.6 5c45.8-9.8 102.4 5.7 126.6 34.7 12 15.6-10.4 46.8-30.5 33.8-11.8-7.5-15.9-10.3-42.6-16.4C144.3 46 90.4 75.2 67 123.4a152.7 152.7 0 0 0-12.5 96.1c19 97 124.7 136.5 195.6 72.9 15.7-14.1 29.2-33 53.3-74.2C316 196.7 333 170 341.3 159l15-20L335.9 88C326.2 62.5 324.7 57 323.3 53c-4-11.8 6.5-20.6 15.8-24.2 12-3.5 19.6-2.6 26.1 2 6.4 4.6 6.4 2.8 27.7 55 11.2 27.5 22.3 54.2 24.6 59.5l4.4 9.7-6.5 3.6c-18 10-35 33-69 92.8A649.1 649.1 0 0 1 312 306c-24.5 32-57.9 55.4-94 65.8a209 209 0 0 1-89.4 1 179 179 0 0 1-87.6-56.5 190.3 190.3 0 0 1-41-125c-.1-14 .5-39.9 5-55.3C25.5 65.8 73.2 19.3 139.6 5Z"/></svg>
