<svg width="727" height="723" viewBox="0 0 727 723" fill="none" xmlns="http://www.w3.org/2000/svg">
<path d="M609.334 218.697C599.134 198.072 581.159 173.231 553.855 144.559C483.698 70.8994 371.972 21.724 249.202 38.3406L69.2203 113.949C27.2948 131.558 -0.0841065 172.594 0.000194122 218.07C0.075128 258.318 2.75401 295.542 7.69965 329.974C7.79331 329.515 31.3038 209.743 180.413 153.645C315.462 102.84 427.938 174.505 483.923 218.828C489.871 223.54 495.182 227.942 499.818 231.857C548.057 272.603 579.567 299.635 606.065 283.122C622.241 273.034 625.351 251.059 609.344 218.697H609.334Z" fill="url(#paint0_linear_3545_4643)"/>
<path d="M483.923 218.837C427.928 174.504 315.462 102.849 180.412 153.654C31.3034 209.742 7.78352 329.514 7.69922 329.983C15.7921 386.314 29.9733 435.143 48.8754 477.434C40.9698 304.777 242.242 145.936 451.036 254.412C466.369 257.644 477.656 256.857 483.482 246.544C490.667 233.833 485.534 221.966 483.923 218.837Z" fill="url(#paint1_linear_3545_4643)"/>
<path d="M317.42 292.91H317.43H317.42Z" stroke="#FF0000" stroke-miterlimit="10"/>
<path d="M48.8661 477.434C91.6814 573.247 158.682 635.461 233.756 675.101C131.321 599.483 106.593 358.243 317.42 292.91C352.03 242.058 403.809 240.671 428.715 248.315C436.845 250.815 444.32 252.998 451.027 254.412C242.233 145.936 40.9606 304.777 48.8661 477.434Z" fill="url(#paint2_linear_3545_4643)"/>
<path d="M655.081 442.889C634.025 432.389 621.604 447.676 594.591 446.711C567.577 445.756 560.402 428.54 556.815 418.742C553.227 408.935 548.207 380.722 504.689 380.722C461.171 380.722 446.587 426.404 384.664 426.385C346.841 426.385 316.942 407.464 304.372 379.683C289.835 459.038 393.262 607.716 670.002 488.206C674.676 470.034 673.346 451.985 655.072 442.88L655.081 442.889Z" fill="url(#paint3_linear_3545_4643)"/>
<path d="M265.144 540.284C203.689 460.058 214.854 330.76 317.43 292.899C106.603 358.223 131.331 599.473 233.766 675.09C275.364 697.055 319.434 712.089 363.252 722.074C457.2 700.671 552.328 656.048 621.652 569.715C442.513 669.901 314.029 604.1 265.144 540.284Z" fill="url(#paint4_linear_3545_4643)"/>
<path d="M657.272 113.958L407.002 8.81644C379.015 -2.93881 347.477 -2.93881 319.489 8.81644L249.201 38.3498C371.971 21.7238 483.707 70.8992 553.854 144.569C581.158 173.24 599.133 198.081 609.333 218.706C623.252 232.41 648.486 256.023 669.477 268.94C700.219 287.861 723.429 275.047 726.221 238.611C726.389 231.857 726.483 225.02 726.502 218.079C726.586 172.603 699.207 131.568 657.282 113.958H657.272Z" fill="url(#paint5_linear_3545_4643)"/>
<path d="M304.381 379.693C294.78 358.468 295.276 332.063 310.076 304.937C312.418 300.647 314.872 296.647 317.419 292.91C214.844 330.752 203.679 460.06 265.134 540.286C314.019 604.101 442.503 669.903 621.641 569.716C637.321 550.186 651.681 528.521 664.41 504.514C666.63 499.231 668.588 493.714 670.002 488.216C393.252 607.717 289.825 459.039 304.372 379.693H304.381Z" fill="url(#paint6_linear_3545_4643)"/>
<defs>
<linearGradient id="paint0_linear_3545_4643" x1="642.183" y1="239.416" x2="26.6204" y2="166.384" gradientUnits="userSpaceOnUse">
<stop offset="0.14" stop-color="#75E4DA"/>
<stop offset="1" stop-color="#64D6D5"/>
</linearGradient>
<linearGradient id="paint1_linear_3545_4643" x1="-27.0232" y1="407.961" x2="405.626" y2="155.837" gradientUnits="userSpaceOnUse">
<stop offset="0.18" stop-color="#4AB5CF"/>
<stop offset="1" stop-color="#5BC9D1"/>
</linearGradient>
<linearGradient id="paint2_linear_3545_4643" x1="90.4263" y1="638.833" x2="308.1" y2="229.253" gradientUnits="userSpaceOnUse">
<stop offset="0.18" stop-color="#3A95C3"/>
<stop offset="1" stop-color="#3E97C4"/>
</linearGradient>
<linearGradient id="paint3_linear_3545_4643" x1="282.107" y1="414.218" x2="671.763" y2="496.252" gradientUnits="userSpaceOnUse">
<stop stop-color="#40A7CD"/>
<stop offset="1" stop-color="#3C94C6"/>
</linearGradient>
<linearGradient id="paint4_linear_3545_4643" x1="134.123" y1="361.867" x2="495.576" y2="674.612" gradientUnits="userSpaceOnUse">
<stop offset="0.29" stop-color="#357DB8"/>
<stop offset="1" stop-color="#315BAF"/>
</linearGradient>
<linearGradient id="paint5_linear_3545_4643" x1="277.639" y1="-8.15608" x2="731.485" y2="226.593" gradientUnits="userSpaceOnUse">
<stop offset="0.14" stop-color="#64D8D3"/>
<stop offset="1" stop-color="#53BBCD"/>
</linearGradient>
<linearGradient id="paint6_linear_3545_4643" x1="233.597" y1="380.255" x2="602.74" y2="603.286" gradientUnits="userSpaceOnUse">
<stop stop-color="#3E9FC7"/>
<stop offset="1" stop-color="#3871B8"/>
</linearGradient>
</defs>
</svg>
