<?xml version="1.0" encoding="UTF-8" standalone="no"?><!DOCTYPE svg PUBLIC "-//W3C//DTD SVG 1.1//EN" "http://www.w3.org/Graphics/SVG/1.1/DTD/svg11.dtd"><svg width="100%" height="100%" viewBox="0 0 2154 559" version="1.1" fill="#ffffff" xmlns="http://www.w3.org/2000/svg" xmlns:xlink="http://www.w3.org/1999/xlink" xml:space="preserve" xmlns:serif="http://www.serif.com/" style="fill-rule:evenodd;clip-rule:evenodd;stroke-linejoin:round;stroke-miterlimit:2;"><path id="Logo---Curve-Cut" serif:id="Logo - Curve Cut" d="M511.054,557.571c-14.555,-1.077 -28.009,-5.003 -42.833,-12.501c-15.669,-7.925 -15.67,-7.92 1.443,-9.767c30.936,-3.338 75.921,-12.158 101.681,-19.937c27.922,-8.432 61.447,-24.236 96.853,-45.658l18.367,-11.112l-0.901,4.268c-1.685,7.986 -8.943,23.802 -15.244,33.219c-7.647,11.427 -21.194,24.696 -33.644,32.955c-28.341,18.799 -84.627,31.573 -125.722,28.533Zm695.593,-1.323c-0.385,-1.022 -0.848,-46.898 -1.029,-101.947l-0.328,-100.09l-31.73,16.459c-17.452,9.052 -32.028,16.453 -32.392,16.447c-0.737,-0.015 -89.902,-170.928 -89.902,-172.33c-0,-1.818 72.249,-33.665 73.32,-32.319c0.181,0.227 18.413,35.161 40.516,77.631l40.188,77.218l0.68,-180.12l4.948,-1.319c22.005,-5.864 58.006,-12.268 89.563,-15.931c60.392,-7.01 128.152,-6.051 193.913,2.746l11.464,1.533l4.578,10.073c2.517,5.54 5.001,12.049 5.518,14.464c1.863,8.691 1.861,3.177 -0.003,-9.073c-1.047,-6.878 -1.914,-12.963 -1.927,-13.522c-0.015,-0.56 1.315,-0.73 2.951,-0.378c1.636,0.351 12.791,2.459 24.789,4.684c27.869,5.167 54.031,11.169 55.377,12.704c0.576,0.656 10.975,69.28 23.109,152.497c12.133,83.218 22.195,151.405 22.358,151.528c0.163,0.124 44.531,-6.278 98.595,-14.224c54.064,-7.946 98.639,-14.107 99.056,-13.689c0.418,0.417 2.677,13.396 5.022,28.843l4.263,28.085l0.268,-191.352l2.975,0.825c6.819,1.889 38.516,7.357 53.875,9.294c43.712,5.512 92.897,8.278 169.559,9.538l55.198,0.906l-0,24.697l-200.959,0l0,128.244l223.474,-0l-0.701,78.664l-303.421,0.673l-0,-40.83l-4.297,0.676c-46.952,7.386 -270.27,39.479 -270.87,38.926c-0.458,-0.422 -12.356,-79.689 -26.442,-176.149c-14.085,-96.461 -26.046,-174.696 -26.581,-173.856c-0.534,0.84 -0.981,4.676 -0.992,8.524c-0.045,15.725 -7.233,39.27 -16.832,55.142c-8.71,14.401 -22.149,27.945 -35.558,35.837c-2.173,1.278 -1.217,2.048 7.585,6.115c26.211,12.111 44.341,30.938 55.421,57.552c12.021,28.875 12.432,69.462 1.042,102.777c-14.617,42.753 -40.802,69.081 -78.181,78.606c-16.89,4.305 -42.716,5.402 -147.309,6.262c-84.732,0.696 -99.555,0.542 -100.151,-1.041l0,-0Zm210.822,-81.126c19.534,-4.911 32.377,-17.995 37.642,-38.346c2.397,-9.265 2.664,-28.07 0.539,-37.998c-3.598,-16.813 -14.493,-31.287 -28.313,-37.614c-13.983,-6.402 -23.232,-7.28 -84.218,-8.002l-56.52,-0.669l0,126.213l61.147,-0.714c50.412,-0.588 62.653,-1.092 69.723,-2.87Zm-11.526,-204.073c16.664,-4.751 27.601,-14.548 33.485,-29.996c3.85,-10.11 3.555,-35.6 -0.531,-45.807c-6.112,-15.267 -18.713,-24.879 -35.953,-27.424c-4.727,-0.698 -32.689,-1.463 -62.139,-1.699l-53.545,-0.429l-0.346,52.882c-0.19,29.085 -0.024,53.716 0.366,54.736c0.602,1.567 9.149,1.733 55.213,1.071c48.375,-0.694 55.508,-1.069 63.451,-3.334l-0.001,-0Zm-626.613,216.906c-35.717,-68.287 -35.781,-68.423 -32.975,-70.656c17.598,-14.006 62.213,-45.965 62.998,-45.127c2.137,2.28 76.691,146.401 76.316,147.526c-0.441,1.322 -66.954,36.551 -69.153,36.627c-0.77,0.025 -17.504,-30.74 -37.186,-68.37Zm-643.616,64.999c-2.181,-0.31 -8.652,-1.199 -14.379,-1.974c-48.643,-6.588 -84.683,-30.522 -104.36,-69.305c-8.298,-16.354 -8.539,-16.149 9.185,-7.821c51.484,24.191 110.954,42.047 178.133,53.483c12.269,2.088 22.553,4.044 22.855,4.346c0.868,0.868 -19.971,11.358 -28.328,14.259c-13.071,4.537 -25.521,6.612 -42.613,7.102c-9.09,0.261 -18.311,0.22 -20.493,-0.09l0,-0Zm296.77,-35.913c-16.178,-18.291 -24.054,-34.998 -36.193,-76.771c-6.433,-22.135 -13.117,-53.007 -37.119,-171.453c-19.08,-94.154 -22.776,-111.262 -23.056,-106.72c-0.325,5.276 -29.794,206.519 -32.664,223.065c-10.214,58.885 -23.965,94.076 -47.406,121.319c-7.674,8.918 -10.147,10.966 -13.657,11.307c-9.133,0.889 -78.763,-12.456 -112.624,-21.585c-36.025,-9.712 -80.176,-26.53 -109.993,-41.897c-17.022,-8.772 -15.627,-6.931 -18.332,-24.193c-1.925,-12.286 -1.919,-52.52 0.011,-67.39c0.847,-6.525 1.655,-11.879 1.797,-11.899c0.141,-0.02 20.657,0.127 45.592,0.328l45.335,0.365l-0.989,4.923c-0.544,2.708 -0.983,15.038 -0.976,27.4c0.01,17.412 0.541,24.393 2.359,30.99c7.839,28.451 26.007,42.386 55.259,42.386c33.718,0 47.666,-19.88 59.305,-84.53c1.383,-7.681 14.181,-94.577 28.44,-193.102c14.26,-98.524 26.12,-179.329 26.356,-179.565c0.598,-0.597 92.269,12.887 93.073,13.69c0.359,0.359 -3.402,28.627 -8.357,62.817c-4.955,34.19 -8.718,62.454 -8.363,62.809c0.355,0.356 15.416,-2.353 33.468,-6.018c18.053,-3.665 33.218,-6.209 33.701,-5.653c0.484,0.556 11.429,53.069 24.324,116.695c33.996,167.754 37.217,181.763 45.435,197.653c6.188,11.966 20.61,26.663 30.909,31.498c11.192,5.255 19.637,6.63 35.428,5.771c30.423,-1.656 53.004,-13.904 63.106,-34.229c5.336,-10.737 6.928,-17.63 6.961,-30.143c0.051,-19.34 -4.266,-43.06 -37.513,-206.112c-12.069,-59.188 -21.943,-108.616 -21.943,-109.84c-0,-1.85 6.154,-3.489 36.561,-9.737c20.109,-4.132 36.707,-7.356 36.884,-7.165c0.304,0.328 36.289,176.459 36.289,177.621c-0,1.455 4.344,-0.586 32.891,-15.46c16.899,-8.804 30.896,-15.795 31.105,-15.535c0.209,0.261 4.739,8.948 10.065,19.306c5.327,10.358 9.978,18.54 10.336,18.183c0.358,-0.358 2.012,-6.035 3.675,-12.617c9.819,-38.84 32.336,-66.182 66.174,-80.351c16.337,-6.841 39.614,-8.868 55.359,-4.822c8.578,2.204 24.968,9.533 31.127,13.919c4.395,3.129 3.868,3.911 7.17,-10.656c6.902,-30.452 23.396,-55.969 45.809,-70.869c17.018,-11.313 41.108,-19.065 59.074,-19.01c22.928,0.07 50.247,12.845 65.672,30.71c10.844,12.56 36.534,55.465 34.084,56.926c-0.575,0.343 -9.182,3.949 -19.126,8.013c-9.945,4.064 -25.825,10.972 -35.289,15.352c-9.464,4.381 -17.689,7.926 -18.277,7.879c-0.588,-0.045 -4.341,-5.178 -8.34,-11.4c-13.607,-21.172 -23.745,-28.513 -39.251,-28.423c-20.066,0.115 -39.413,16.49 -45.295,38.334c-0.838,3.11 -1.521,10.834 -1.52,17.165c0.003,10.617 0.738,14.377 6.264,32.048c0.416,1.328 -1.148,3.027 -4.543,4.935c-4.061,2.282 -39.044,25.317 -61.112,40.239l-3.331,2.252l-8.738,-14.82c-10.06,-17.062 -18.661,-27.221 -27.39,-32.353c-5.097,-2.996 -7.686,-3.601 -15.401,-3.601c-7.834,-0 -10.663,0.683 -18.218,4.399c-11.375,5.594 -20.682,14.898 -26.281,26.272c-4.245,8.622 -4.399,9.494 -4.399,24.829c-0,14.967 0.28,16.663 4.803,29.114c2.642,7.271 6.291,16.503 8.11,20.514l3.306,7.293l-32.055,23.692c-17.631,13.031 -32.515,23.731 -33.077,23.777c-0.927,0.076 -17.7,-31.46 -55.732,-104.787c-7.665,-14.777 -14.103,-26.675 -14.309,-26.442c-0.205,0.233 2.169,12.921 5.277,28.194c11.934,58.641 17.825,99.323 17.825,123.085l-0,13.372l-7.602,5.064c-27.613,18.394 -63.981,38.114 -89.572,48.567c-32.415,13.241 -72.301,22.386 -125.6,28.797c-29.72,3.575 -28.512,3.703 -35.076,-3.719l-0,-0Zm542.366,-52.223c-14.839,-26.444 -81.091,-156.099 -80.127,-156.808c6.498,-4.776 65.957,-43.82 66.732,-43.82c0.564,-0 1.667,1.933 2.451,4.297c0.784,2.363 20.456,40.843 43.716,85.511c23.26,44.668 42.149,81.304 41.976,81.415c-1.518,0.966 -70.033,36.346 -70.387,36.346c-0.256,0 -2.219,-3.123 -4.361,-6.941Zm1075.26,-155.257c-75.093,-1.309 -142.339,-7.388 -188.729,-17.06l-11.569,-2.412l0,-203.06l296.15,-0l0,79.326l-215.502,-0l0,104.429l200.298,0.677l0.731,39.002l-31.435,-0.29c-17.289,-0.159 -39.764,-0.435 -49.944,-0.612l0,-0Zm-477.277,-167.746c-10.907,-2.451 -29.053,-6.043 -40.324,-7.98c-11.271,-1.938 -20.598,-3.601 -20.728,-3.696c-0.761,-0.557 -4.684,-32.681 -4.067,-33.299c0.659,-0.659 78.055,-12.472 78.523,-11.985c0.405,0.421 8.411,56.642 8.411,59.063c-0,1.433 -0.446,2.549 -0.992,2.48c-0.545,-0.069 -9.916,-2.131 -20.823,-4.583Zm-366.579,-27.353l0.358,-26.772l71.393,-0.375c78.131,-0.411 138.074,1.267 154.942,4.335c21.036,3.827 38.229,12.6 52.768,26.927c4.712,4.643 8.37,8.638 8.13,8.879c-0.241,0.241 -4.283,-0.094 -8.982,-0.745c-15.533,-2.151 -57.069,-5.199 -82.58,-6.061c-54.016,-1.823 -129.567,5.61 -182.527,17.959c-6.195,1.444 -11.847,2.626 -12.561,2.626c-0.819,-0 -1.166,-9.89 -0.941,-26.773l0,0Z" style="fill-rule:nonzero;"/></svg>