<svg xmlns="http://www.w3.org/2000/svg" width="1254" height="1254" viewBox="0 0 1254 1254" fill="none">
<path d="M 406.50 143.00 L 402.00 149.50 L 403.00 166.25 L 409.00 194.25 L 419.00 226.25 L 437.25 266.75 L 465.25 312.75 L 502.25 359.75 L 710.00 579.50 L 709.25 581.00 L 696.25 582.00 L 369.50 581.00 L 346.50 584.00 L 326.50 590.00 L 308.00 599.25 L 294.00 609.25 L 273.25 631.00 L 257.00 660.50 L 250.00 684.50 L 248.00 708.25 L 250.00 734.25 L 258.00 760.25 L 274.25 788.75 L 292.00 807.50 L 305.00 817.50 L 328.50 829.75 L 345.50 834.75 L 365.50 837.75 L 641.75 838.00 L 637.00 845.50 L 637.00 851.25 L 633.75 855.75 L 609.50 861.00 L 599.00 865.25 L 591.25 872.00 L 588.00 879.50 L 588.00 890.25 L 592.25 899.75 L 616.00 929.25 L 563.50 927.00 L 548.00 932.25 L 541.00 941.50 L 540.00 951.25 L 543.25 959.75 L 570.75 994.00 L 572.00 997.50 L 516.50 996.00 L 506.00 999.25 L 499.25 1005.00 L 496.00 1011.50 L 497.00 1025.25 L 503.25 1035.75 L 527.00 1065.25 L 471.50 1065.00 L 458.00 1071.25 L 453.00 1078.50 L 452.00 1095.25 L 461.25 1116.75 L 475.25 1135.75 L 485.00 1144.50 L 489.75 1146.50 L 493.50 1143.75 L 493.75 1141.50 L 477.75 1112.25 L 475.75 1105.25 L 477.00 1094.00 L 482.50 1089.75 L 525.50 1091.75 L 544.25 1090.75 L 553.75 1086.50 L 559.75 1076.25 L 559.75 1065.50 L 557.50 1060.00 L 527.75 1022.50 L 587.25 1023.75 L 597.75 1019.50 L 604.75 1010.25 L 604.75 998.50 L 601.50 991.00 L 572.00 954.00 L 587.25 952.75 L 619.50 955.75 L 633.25 954.75 L 641.75 951.50 L 648.75 942.25 L 649.75 934.50 L 644.50 921.00 L 617.00 887.75 L 619.00 885.00 L 638.25 880.75 L 650.50 875.75 L 662.25 875.75 L 669.75 872.50 L 701.50 837.75 L 893.25 837.75 L 913.25 834.75 L 934.25 827.75 L 953.75 817.50 L 965.75 808.50 L 979.50 794.75 L 992.50 776.75 L 1000.75 760.25 L 1007.75 738.25 L 1010.75 718.25 L 1010.75 698.50 L 1006.75 675.50 L 1001.75 660.50 L 992.50 642.00 L 980.50 625.00 L 966.75 611.25 L 948.75 598.25 L 929.25 589.00 L 904.00 582.75 L 674.50 334.00 L 578.75 234.25 L 535.75 198.25 L 494.75 172.25 L 472.25 161.00 L 443.25 150.00 L 417.25 143.00 Z M 267.75 725.50 L 323.25 724.75 L 328.25 734.75 L 335.00 742.50 L 350.50 751.75 L 358.50 753.75 L 373.25 753.75 L 389.75 747.50 L 401.50 736.75 L 408.50 724.75 L 990.25 724.75 L 991.00 730.25 L 985.00 751.25 L 976.75 767.75 L 955.75 792.75 L 937.75 805.75 L 927.25 811.00 L 898.25 819.00 L 359.50 819.00 L 333.50 812.00 L 319.00 804.75 L 304.00 793.75 L 292.00 781.75 L 280.00 764.75 L 274.75 754.25 L 268.75 736.25 Z M 362.50 681.75 L 373.25 682.75 L 381.75 687.00 L 387.75 693.00 L 392.00 702.50 L 392.00 715.25 L 386.75 725.75 L 379.75 731.75 L 366.25 736.00 L 350.00 730.75 L 343.00 723.75 L 338.75 712.25 L 338.75 703.50 L 345.00 691.00 L 351.00 686.00 Z M 267.00 693.00 L 272.75 669.50 L 281.00 652.00 L 290.00 639.00 L 305.00 624.00 L 319.00 614.00 L 342.50 603.75 L 363.50 599.75 L 895.25 599.75 L 924.25 606.75 L 940.75 615.00 L 955.75 626.00 L 965.75 636.00 L 978.75 654.00 L 987.00 672.50 L 991.00 687.50 L 990.25 695.00 L 409.50 695.00 L 401.50 681.00 L 389.75 670.25 L 374.25 664.00 L 357.50 664.00 L 339.00 672.25 L 329.25 682.00 L 322.25 695.00 L 268.50 695.00 Z M 526.00 225.00 L 550.75 245.00 L 585.75 279.00 L 611.75 307.00 L 634.50 335.00 L 616.50 329.00 L 597.00 318.75 L 565.00 292.75 L 550.00 274.75 L 538.00 255.75 L 526.75 232.25 Z" fill="#73C9F7" fill-rule="evenodd"/>
<path d="M 268.00 725.50 L 269.00 736.25 L 275.00 754.25 L 280.25 764.75 L 292.25 781.75 L 304.00 793.50 L 319.00 804.50 L 333.50 811.75 L 359.50 818.75 L 898.25 818.75 L 927.25 810.75 L 937.75 805.50 L 955.75 792.50 L 976.50 767.75 L 984.75 751.25 L 990.75 730.25 L 990.25 725.00 L 408.50 725.00 L 401.75 736.75 L 389.75 747.75 L 373.25 754.00 L 358.50 754.00 L 350.50 752.00 L 335.00 742.75 L 328.00 734.75 L 323.25 725.00 Z" fill="#16202A" fill-rule="evenodd"/>
<path d="M 362.50 682.00 L 351.00 686.25 L 345.25 691.00 L 339.00 703.50 L 339.00 712.25 L 343.25 723.75 L 350.00 730.50 L 366.25 735.75 L 375.25 733.75 L 386.50 725.75 L 391.75 715.25 L 391.75 702.50 L 387.50 693.00 L 381.75 687.25 L 373.25 683.00 Z" fill="#16202A" fill-rule="evenodd"/>
<path d="M 267.25 693.00 L 268.50 694.75 L 322.25 694.75 L 329.00 682.00 L 339.00 672.00 L 357.50 663.75 L 374.25 663.75 L 389.75 670.00 L 401.75 681.00 L 409.50 694.75 L 990.25 694.75 L 990.75 687.50 L 986.75 672.50 L 978.50 654.00 L 965.50 636.00 L 955.75 626.25 L 940.75 615.25 L 924.25 607.00 L 895.25 600.00 L 363.50 600.00 L 350.50 602.00 L 331.50 608.00 L 319.00 614.25 L 305.00 624.25 L 290.25 639.00 L 281.25 652.00 L 273.00 669.50 Z" fill="#16202A" fill-rule="evenodd"/>
</svg>