<svg width="337" height="337" viewBox="0 0 337 337" fill="none" xmlns="http://www.w3.org/2000/svg">
<rect width="337" height="337" fill="#111111"/>
<path d="M31.552 216V124.864H49.472L57.152 144.064V216H31.552ZM94.272 216L41.408 149.568L49.472 124.864L102.336 191.296L94.272 216ZM94.272 216L87.872 195.776V124.864H113.472V216H94.272Z" fill="#6E0593"/>
<path d="M145.704 216V194.24H166.952C171.731 194.24 175.869 193.387 179.368 191.68C182.867 189.888 185.555 187.2 187.432 183.616C189.309 180.032 190.248 175.595 190.248 170.304C190.248 165.013 189.267 160.619 187.304 157.12C185.427 153.621 182.739 151.019 179.24 149.312C175.827 147.52 171.731 146.624 166.952 146.624H144.424V124.864H166.952C174.12 124.864 180.691 125.931 186.664 128.064C192.723 130.197 197.971 133.269 202.408 137.28C206.845 141.291 210.259 146.112 212.648 151.744C215.123 157.291 216.36 163.52 216.36 170.432C216.36 177.344 215.123 183.616 212.648 189.248C210.259 194.795 206.845 199.573 202.408 203.584C197.971 207.595 192.765 210.667 186.792 212.8C180.819 214.933 174.291 216 167.208 216H145.704ZM128.552 216V124.864H154.152V216H128.552ZM282.098 216L250.226 168.512L280.562 124.864H311.41L276.338 172.224L276.21 164.032L312.818 216H282.098ZM226.802 216V124.864H252.402V216H226.802Z" fill="white"/>
</svg>
