<svg xmlns="http://www.w3.org/2000/svg" width="64" height="64" fill="none"><g clip-path="url(#a)"><rect width="64" height="64" x="64" y="64" fill="#9333EA" rx="16" transform="rotate(-180 64 64)"/><path fill="#fff" fill-rule="evenodd" d="M14.999 34.961v-17.96h4v17.96c0 3.172 1.492 6.152 4.015 8.036L28.377 47a14.026 14.026 0 0 1 5.622 11.24V64h-4v-5.76c0-3.17-1.492-6.15-4.015-8.035l-5.363-4.004a14.027 14.027 0 0 1-5.622-11.24Z" clip-rule="evenodd"/><path fill="#fff" fill-rule="evenodd" d="M48.999 34.961v-17.96h-4v17.96c0 3.172-1.492 6.152-4.015 8.036L35.62 47a14.027 14.027 0 0 0-5.622 11.24V64h4v-5.76c0-3.17 1.492-6.15 4.015-8.035l5.363-4.004A14.027 14.027 0 0 0 49 34.962Z" clip-rule="evenodd"/><path fill="#fff" fill-rule="evenodd" d="M29.799 64.001V27.887h4.4V64h-4.4Z" clip-rule="evenodd"/><path fill="#fff" d="M40.999 18.001a6 6 0 1 1 12 0 6 6 0 0 1-12 0Zm-29.985 0a6 6 0 1 1 12 0 6 6 0 0 1-12 0Zm15.985 12a5 5 0 1 1 10 0 5 5 0 0 1-10 0Z"/></g><defs><clipPath id="a"><rect width="64" height="64" x="64" y="64" fill="#fff" rx="16" transform="rotate(-180 64 64)"/></clipPath></defs></svg>