<svg width="2163" height="2423" viewBox="0 0 2163 2423" fill="none" xmlns="http://www.w3.org/2000/svg">
<path fill-rule="evenodd" clip-rule="evenodd" d="M15.7808 155.445L15.4961 155.588L15.3538 155.73C14.9272 156.014 14.3606 156.3 13.934 156.584L12.6531 157.296L12.3684 157.577H12.2261L12.0838 157.719L11.5145 158.146L10.9487 158.715H10.8063L10.664 158.858C9.81088 159.569 8.81307 160.421 8.10214 161.274L7.25166 162.128L6.96701 162.555L6.82468 162.697L6.68236 162.839L6.39771 163.266L5.8284 163.978L5.68608 164.263H5.54375C5.25938 164.689 4.97417 165.256 4.6898 165.682H4.54747L4.40515 166.109L3.97817 166.821L3.83932 167.106L3.69699 167.39L3.41234 167.675L3.27002 168.098L2.98536 168.525L2.84304 168.952L2.70071 169.237V169.379L2.41606 169.949L1.98909 170.66L1.84676 171.372L1.56211 171.938V172.08L1.41978 172.365L1.27746 172.934L1.13513 173.361L0.992807 173.646L0.850482 174.215V174.5V174.784L0.565831 175.35L0.423505 176.062V176.489L0.284651 177.485V177.627L0.142326 177.912V178.339V178.905L0 179.474V179.759V180.043C0 180.612 0 181.325 0 181.894V1202.08C0 1213.46 6.39729 1223.84 16.6347 1228.81L312.099 1372.14L16.6347 1515.6L15.7808 1516.03L15.4961 1516.17H15.3538C14.9272 1516.46 14.3606 1516.88 13.934 1517.17L12.6531 1517.88L12.3684 1518.16H12.2261L12.0838 1518.31L11.5145 1518.73L10.9487 1519.3H10.8063L10.664 1519.44C9.81088 1520.15 8.81307 1521.01 8.10214 1521.86L7.25166 1522.71L6.96701 1523.14L6.82468 1523.28L6.68236 1523.42L6.39771 1523.85L5.8284 1524.56L5.68608 1524.85H5.54375C5.25938 1525.27 4.97417 1525.7 4.6898 1526.27H4.54747L4.40515 1526.55L3.97817 1527.4L3.83932 1527.69L3.69699 1527.83L3.41234 1528.26L3.27002 1528.69L2.98536 1529.11L2.84304 1529.54L2.70071 1529.82V1529.96L2.41606 1530.53L1.98909 1531.24L1.84676 1531.96L1.56211 1532.52V1532.67L1.41978 1532.95L1.27746 1533.52L1.13513 1533.94L0.992807 1534.23L0.850482 1534.8V1535.08V1535.23L0.565831 1535.94L0.423505 1536.65V1536.93L0.284651 1538.07V1538.21L0.142326 1538.5V1538.78V1539.49L0 1540.06V1540.34V1540.48C0 1541.2 0 1541.77 0 1542.48V1882.44C0 1893.68 6.39729 1904.06 16.6347 1909.03L1067.54 2419.2L1067.96 2419.34L1068.25 2419.48L1068.82 2419.77L1069.39 2420.05L1069.81 2420.2L1070.81 2420.62H1071.09L1071.8 2420.91L1072.23 2421.05H1072.51L1072.94 2421.19L1073.37 2421.33H1073.65L1074.08 2421.48L1074.79 2421.62H1074.93C1075.5 2421.76 1075.93 2421.9 1076.49 2421.9H1076.64L1077.06 2422.04H1077.77L1078.2 2422.18H1078.48H1078.77H1079.2H1080.05H1080.33C1081.61 2422.18 1082.75 2422.18 1083.89 2422.04L1085.02 2421.9L1085.74 2421.76H1085.88L1086.45 2421.62L1087.59 2421.33C1088.3 2421.19 1088.86 2421.05 1089.43 2420.91L1090.71 2420.48L1091 2420.34L1091.14 2420.2L1091.57 2420.05L1092.13 2419.91L1092.56 2419.63L1092.99 2419.48L1093.13 2419.34L1093.56 2419.2L2144.46 1909.03C2154.69 1904.06 2161.09 1893.68 2161.09 1882.44V1542.19C2161.09 1532.1 2155.83 1522.57 2147.3 1517.17C2146.31 1516.6 2145.45 1516.03 2144.46 1515.6L1848.99 1372.14L2144.46 1228.81C2154.69 1223.84 2161.09 1213.46 2161.09 1202.23L2162.8 181.182C2162.8 180.471 2162.8 179.9 2162.66 179.189V179.047V178.762V178.197L2162.51 177.485V177.2V176.916V176.773L2162.23 175.777V175.35L2162.09 174.642L2161.95 173.93L2161.8 173.788V173.503L2161.66 172.934L2161.52 172.507V172.222L2161.24 171.653V171.372L2161.09 171.23L2160.95 170.66L2160.67 169.949L2160.38 169.237L2160.1 168.525H2159.96V168.241L2159.67 167.817L2159.39 167.248L2159.24 166.963L2159.1 166.536L2158.96 166.252L2158.82 166.109L2158.25 165.255L2158.11 164.971C2157.82 164.402 2157.4 163.977 2157.11 163.551V163.409L2156.97 163.266L2156.4 162.555L2155.97 162.128V161.985L2155.83 161.843L2155.41 161.416L2154.69 160.566C2153.84 159.712 2152.99 158.857 2151.99 158.146V158.004H2151.85L2151.14 157.434L2150.57 157.011L2150.43 156.869H2150.29L2150 156.584L2148.87 155.73C2148.3 155.446 2147.87 155.16 2147.3 154.876L2146.88 154.734L2146.02 154.307L1834.35 2.87928C1826.25 -0.95976 1816.72 -0.95976 1808.47 2.87928L1080.62 356.357L355.89 3.02161C347.643 -0.959621 338.119 -0.95976 329.872 2.87928L16.6347 155.018L15.7808 155.445ZM1050.9 710.4L59.1484 228.955V1183.6L743.21 1515.6C753.305 1520.58 759.845 1530.96 759.845 1542.19V1882.44C759.845 1892.54 754.584 1902.07 745.911 1907.47C737.237 1912.87 726.431 1913.44 717.331 1909.03L59.1484 1589.54V1863.82L1050.9 2345.26V1381.24L367.266 1058.9L366.839 1058.62L366.273 1058.33L365.704 1058.05L365.419 1057.9L365.134 1057.76C364.708 1057.48 364.138 1057.19 363.711 1056.77H363.569L363.284 1056.63L362.576 1056.06L362.007 1055.63L361.864 1055.49H361.722C361.296 1055.06 360.725 1054.63 360.299 1054.21L359.306 1053.35L358.879 1052.79H358.737L358.594 1052.64C357.741 1051.79 356.886 1050.79 356.033 1049.66L355.89 1049.52L355.467 1048.95L355.04 1048.09L354.897 1047.95L354.755 1047.81C354.471 1047.24 354.185 1046.81 353.901 1046.24V1046.1L353.759 1045.82L353.189 1044.97L353.047 1044.54L352.905 1044.25L352.762 1043.97L352.62 1043.54L352.197 1042.55V1042.41L352.054 1042.27C351.912 1041.7 351.627 1041.13 351.485 1040.42V1040.13L351.2 1039.28L350.916 1038.43V1038.28C350.631 1037 350.489 1035.58 350.346 1034.3V1034.16V1034.02C350.346 1033.45 350.346 1032.74 350.346 1032.02V691.915C350.346 681.678 355.465 672.151 364.138 666.748C372.811 661.345 383.618 660.778 392.86 665.186L1050.9 984.679V710.4ZM1110.19 2345.26L2101.94 1863.82V1589.54L1443.76 1909.03C1434.66 1913.44 1423.85 1912.87 1415.18 1907.47C1406.51 1902.07 1401.25 1892.54 1401.25 1882.44V1542.19C1401.25 1530.96 1407.79 1520.58 1417.89 1515.6L2101.94 1183.6L2103.37 228.247L1110.19 710.4V984.679L1768.23 665.186C1777.47 660.778 1788.28 661.345 1796.95 666.748C1805.63 672.151 1810.75 681.678 1810.75 691.915V1032.02C1810.75 1032.74 1810.75 1033.45 1810.75 1034.02V1034.16V1034.3C1810.6 1035.58 1810.46 1037 1810.18 1038.28V1038.43L1809.89 1039.28L1809.61 1040.13V1040.42C1809.47 1041.13 1809.18 1041.7 1809.04 1042.27V1042.41L1808.9 1042.55L1808.47 1043.54L1808.33 1043.97L1808.19 1044.25L1808.04 1044.54L1807.9 1044.97L1807.33 1045.82L1807.19 1046.1V1046.24C1806.91 1046.81 1806.62 1047.24 1806.19 1047.81V1047.95L1806.06 1048.09L1805.63 1048.95L1805.2 1049.52L1805.06 1049.66H1804.92C1804.21 1050.79 1803.35 1051.79 1802.5 1052.64L1802.36 1052.79H1802.22L1801.79 1053.35L1800.79 1054.21C1800.37 1054.63 1799.8 1055.06 1799.37 1055.49H1799.23L1799.08 1055.63L1798.52 1056.06L1797.81 1056.63L1797.52 1056.77H1797.38C1796.95 1057.19 1796.38 1057.48 1795.96 1057.76L1795.67 1057.9L1795.39 1058.05L1794.82 1058.33L1794.25 1058.62L1793.83 1058.9L1110.19 1381.24V2345.26ZM1781.17 1405.12L1460.54 1560.82V1835.1L2063.7 1542.19L1781.17 1405.12ZM379.922 1405.12L97.3958 1542.19L700.554 1835.1V1560.82L379.922 1405.12ZM730.269 894.816L448.454 1031.6L1080.62 1329.62L1712.64 1031.6L1430.82 894.816L1093.56 1058.62L1093.13 1058.9H1092.84L1092.28 1059.18L1091.71 1059.47L1091.28 1059.61L1090.29 1060.04L1090 1060.18L1089.29 1060.32L1088.86 1060.46H1088.58L1088.15 1060.6L1087.73 1060.75H1087.59L1087.02 1060.89L1086.3 1061.03L1086.16 1061.17C1085.59 1061.17 1085.17 1061.32 1084.6 1061.32H1084.46L1084.03 1061.46L1083.32 1061.6H1082.89H1082.61H1082.32H1081.9H1081.04H1080.76C1079.48 1061.6 1078.34 1061.6 1077.21 1061.46L1076.07 1061.32L1075.36 1061.17H1075.21L1074.64 1061.03L1073.51 1060.75C1072.8 1060.6 1072.23 1060.46 1071.66 1060.32L1070.38 1059.9L1070.1 1059.75H1069.95L1069.53 1059.61L1068.96 1059.33L1068.53 1059.04L1068.1 1058.9H1067.96L1067.54 1058.62L730.269 894.816ZM1498.65 861.97L1751.6 984.679V739.265L1498.65 861.97ZM409.495 984.679L662.445 861.97L409.495 739.265V984.679ZM2065.26 180.897L1821.41 62.4547L1093.56 415.932C1085.31 419.913 1075.78 419.913 1067.54 415.932L342.81 62.4547L97.3958 181.751L1080.62 658.927L2065.26 180.897Z" fill="#5BEBF3"/>
</svg>
